<?xml version="1.0" encoding="utf-8"?>
<!-- Generator: Adobe Illustrator 27.0.1, SVG Export Plug-In . SVG Version: 6.00 Build 0)  -->
<svg version="1.1" id="Layer_1" xmlns="http://www.w3.org/2000/svg" xmlns:xlink="http://www.w3.org/1999/xlink" x="0px" y="0px"
	 viewBox="0 0 100 100" style="enable-background:new 0 0 100 100;" xml:space="preserve">
<g>
	<path d="M33.9,91.8c0.3-0.6,0.7-1.2,1.2-1.7c1-1,2.3-1.7,3.7-1.9c1.9-0.3,3.8,0.3,4.9,2.1c0.4,0.6,0.7,1.3,0.8,2c0,0.1,0,0.1,0,0.2
		c0,0,0,0.1,0,0.1c-0.2-1.2-0.7-2.2-1.6-3.1c-1.1-1-2.4-1.4-3.8-1.2C36.9,88.7,35.2,89.8,33.9,91.8C34,91.7,33.9,91.8,33.9,91.8z"/>
	<path d="M54.1,78.6c-0.5,0-1,0-1.2-0.5c0-0.1-0.1-0.2-0.1-0.3c0.1-0.5,0.3-0.8,0.7-1c0.4-0.2,0.7,0,1,0.3c0.4,0.3,0.4,0.7,0.4,1.1
		c0,0.1-0.1,0.2-0.2,0.2C54.5,78.6,54.3,78.6,54.1,78.6z M53.9,78.4c0.3,0,0.6-0.2,0.6-0.4c0-0.3-0.2-0.5-0.5-0.5
		c-0.3,0-0.5,0.2-0.5,0.5C53.5,78.3,53.7,78.4,53.9,78.4z"/>
	<path d="M44.4,66.1c0.1,0.1,0.1,0.2,0.2,0.3c0.2,0.4,0.5,0.5,0.8,0.2c0.3-0.2,0.5-0.5,0.7-0.8c0.3-0.5,0.4-1.1,0.4-1.8
		c0-0.1,0-0.3,0.1-0.4c0.4,1.1-0.1,2.6-1,3.2c-0.2,0.2-0.5,0.2-0.7,0.1c-0.2-0.1-0.4-0.3-0.4-0.6C44.3,66.3,44.3,66.3,44.4,66.1z"/>
	<path d="M55.5,65.2c-0.1,0.3-0.3,0.5-0.5,0.5c-0.3,0-0.4-0.1-0.6-0.3c-0.3-0.5-0.5-1.1-0.5-1.7c0,0,0.1,0,0.1,0
		c0.1,0.2,0.1,0.5,0.2,0.7c0.1,0.3,0.1,0.5,0.3,0.8C54.8,65.5,55,65.5,55.5,65.2z"/>
	<path d="M58.4,64.1c0,0.1,0.1,0.3,0.1,0.4c0.1,0.3,0.1,0.5,0.2,0.8c0.2,0.5,0.6,0.6,1,0.2c0,0.3-0.3,0.5-0.7,0.4
		c-0.3-0.1-0.5-0.4-0.6-0.7c-0.1-0.4-0.1-0.7-0.1-1.1C58.4,64.2,58.4,64.2,58.4,64.1z"/>
	<path d="M62.5,66.1c0.4,0.5,0.7,1.2,1.5,1.1c-0.1,0-0.2,0.1-0.2,0.1c-0.2-0.1-0.5-0.1-0.7-0.2C62.8,66.9,62.5,66.6,62.5,66.1z"/>
	<path d="M39.9,67.1c-0.4-0.1-0.8-0.7-0.9-1.5C39.3,66.1,39.6,66.6,39.9,67.1z"/>
	<path d="M62.7,69.6c-0.2,0.2-0.5,0.3-0.8,0.2c-0.3-0.1-0.5-0.5-0.4-1c0.1,0.2,0.2,0.3,0.2,0.4C61.9,69.7,62.1,69.9,62.7,69.6
		C62.6,69.6,62.6,69.6,62.7,69.6z"/>
	<path d="M40.1,64.6c0.6-0.1,0.6,0.5,1,0.7C40.6,65.3,40.5,64.8,40.1,64.6z"/>
	<path d="M50.2,66.1c0.1,0.5,0.3,0.7,0.7,0.9C50.4,66.9,50,66.5,50.2,66.1z"/>
	<path d="M58.9,64.3c0.1,0,0.2-0.1,0.4-0.1c0,0.2,0.1,0.3,0.1,0.4c0,0,0,0,0,0.1C59.2,64.6,59,64.5,58.9,64.3
		C58.9,64.4,58.9,64.4,58.9,64.3z"/>
	<g>
		<path d="M98.7,96.6c-0.6-0.1-1.2-0.2-1.8-0.2c-2.5,0-5,0.1-7.6,0.1c-0.7,0-1.4,0-2.1,0c-0.2,0-0.3-0.1-0.4-0.2
			c-0.1-0.1-0.2-0.2-0.4-0.2c-0.6-0.1-1.2-0.2-1.8-0.2c-1.6-0.1-3.1-0.2-4.7-0.2c-0.2,0-0.4,0-0.3-0.3c0-0.2-0.1-0.5,0.3-0.5
			c0.6,0,1.3,0,1.9,0c2.1,0.1,4.2,0.1,6.3,0.2c1.7,0,3.5,0,5.2,0.1c0.3,0,0.6,0,0.9-0.1c0,0,0-0.1,0-0.1c-4.9-0.2-9.7-0.3-14.6-0.5
			c0.1-2.9-1-5.2-3.3-6.8c-2.3-1.7-4.9-1.9-7.6-0.9c0-0.4-0.1-0.7-0.1-1c0-0.5-0.2-0.9-0.6-1.1c-0.5-0.3-1-0.4-1.6-0.4
			c-0.3,0-0.6,0.1-0.9,0.1c0-0.4,0.1-0.8,0.1-1.1c0-1.3,0-2.6,0-3.9c0-0.2,0.1-0.3,0.3-0.3c0.4,0,0.8-0.1,1.1-0.2
			c1.1-0.2,2.2-0.3,3.2-0.5c0.6-0.1,0.9-0.6,1.1-1.1c0.2-0.6,0.3-1.2,0.4-1.8c0.3-2.1,0.6-4.2,0.9-6.3c0.1-0.7,0.2-1.4,0.3-2.1
			c0,0,0,0,0.1,0c0.1,0.6,0.2,1.2,0.3,1.7c0.1,0.6,0.2,1.2,0.3,1.7c0.1,0.6,0.3,1.2,0.5,1.8c0.1,0.2,0.3,0.4,0.5,0.4
			c0.8,0,1.5-0.1,2.3-0.3c0.2-0.1,0.5-0.2,0.6-0.4c0.4-0.5,0.8-0.9,1.1-1.5c0.2-0.4,0.4-0.5,0.8-0.4c0,0,0,0,0,0
			c-0.2,0.8,0,1.1,0.6,1.3c1.1,0.5,2.6,0.3,3.3-0.7c0-0.1,0.2-0.1,0.3-0.1c0.2,0.1,0.3,0.2,0.5,0.4c0.2,0.2,0.5,0.3,0.8,0.3
			c0.9,0,1.6-0.5,2-1.3c0.2,0.4,0.7,0.8,1.2,0.7c0.6-0.1,0.9-0.4,1.2-1c0.1,0.2,0.2,0.3,0.3,0.4c0.1,0.1,0.2,0.2,0.3,0.2
			c0.6,0.1,1.1,0,1.5-0.4c0.5-0.4,0.7-1,0.8-1.6c0.4-1.8-0.5-3.9-2.3-4.6c-1-0.4-2-0.9-2.9-1.4c-0.2-0.1-0.3-0.2-0.4-0.4
			c-0.1-0.8-0.5-1.4-0.8-2.1c-1.2-2-2.7-3.8-4.4-5.4c-1.6-1.5-3.4-2.7-5.2-4c-0.4-0.2-0.4-0.5-0.3-1c0.4,0.1,0.8,0.2,1.2,0.2
			c0.9,0.1,1.9,0.2,2.9,0.3c0.2,0,0.3-0.1,0.4-0.3c0.1-0.3,0.1-0.5,0.2-0.8c0.2-1.3,0.3-2.5,0.5-3.8c0.3-2.4,0.7-4.7,1-7.1
			c0.1-0.6,0.2-1.1,0.3-1.7c0.1-0.6-0.1-0.9-0.7-1.1c-0.5-0.1-1.1-0.2-1.6-0.3c-0.8-0.2-1.6-0.3-2.3-0.4c0.1-0.5,0.2-1.1,0.3-1.6
			c0.2-0.9,0.4-1.9,0.6-2.8c0-0.1,0.1-0.3,0.2-0.3c0.6-0.2,0.9-0.7,1.2-1.2c0.8-1.5,1.2-3.2,1-4.9c-0.1-1.1-0.8-1.8-1.8-2.1
			c-0.4-0.1-0.8-0.2-1.2-0.3c-0.2-1-0.5-2-0.8-3c-0.4-1-0.8-1.9-1.4-2.8c-1.1-1.7-2.5-3-4.2-4.1c-1.6-1-3.2-1.8-5-2.4
			c-2.5-0.8-5-1.3-7.6-1.6c-0.7-0.1-0.7-0.1-0.8-0.8c-0.1-0.6-0.3-1.2-0.6-1.7c-0.1-0.2-0.2-0.3-0.5-0.3c-0.2,0-0.3-0.1-0.3-0.3
			c-0.1-0.8,0-1.6-0.4-2.4c0.5,0.1,1,0.1,1.5,0.2c0.8,0.2,1.7,0.2,2.5,0.1c0.4,0,0.8-0.1,1.3-0.2c0.2,0,0.4-0.2,0.5-0.5
			c0.1-0.4-0.1-0.8-0.5-1c-0.3-0.1-0.6-0.2-0.9-0.3c-1.8-0.4-3.6-0.5-5.4-0.6C52-0.1,48.4-0.1,44.8,0.3c-0.5,0.1-1,0.2-1.4,0.3
			c-0.5,0.1-0.8,0.5-0.9,1c-0.1,0.4,0.2,0.8,0.7,0.8c1.7,0.3,3.5,0.3,5.2,0c0.4-0.1,0.4,0,0.3,0.3c-0.2,0.7-0.3,1.4-0.3,2.1
			c0,0.3,0,0.4-0.3,0.5c-0.5,0.1-0.8,0.5-0.9,1c0,0.4-0.1,0.7-0.1,1.1c0,0.1-0.1,0.2-0.2,0.2c-0.6,0.1-1.2,0.3-1.7,0.4
			c-2,0.4-4.1,0.8-6,1.5c-2.1,0.7-4,1.7-5.7,3c-1.6,1.3-2.9,2.8-3.9,4.7c-0.7,1.4-1.1,2.8-1.3,4.3c0,0.2-0.1,0.3-0.3,0.3
			c-1.1,0.3-1.8,1.1-1.9,2.3c-0.1,1,0.1,2,0.4,3c0.3,0.9,0.8,1.7,1.4,2.4c0.4,0.4,0.5,0.9,0.6,1.4c0.1,1,0.2,2,0.3,3.1
			c0,0.2,0,0.4-0.3,0.4c-1,0.2-2.1,0.4-3.1,0.7c-0.5,0.1-0.8,0.4-0.8,0.9c0,0.5,0.1,1.1,0.1,1.6c0.1,1.5,0.2,3,0.4,4.5
			c0.1,1.4,0.3,2.8,0.5,4.2c0,0.5,0,0.9,0.1,1.4c0,0.1,0,0.1,0,0.2c-0.1-0.2-0.1-0.4-0.1-0.6c0-0.6-0.2-1.1-0.6-1.4
			c-0.6-0.5-1.1-1-1.5-1.7c-0.2-0.3-0.5-0.6-0.8-0.7c-0.3-0.1-0.4-0.3-0.4-0.6c0-0.1,0-0.2,0-0.3c-0.1-1.7-0.2-3.4-0.2-5.2
			c-0.1-1.7,0-3.4-0.1-5.1c0-0.8-0.3-1.6-1-2.1c-0.2-0.1-0.3-0.3-0.5-0.5c0.3-0.4,0.2-1.4-0.2-1.7c-0.2-0.1-0.3-0.3-0.3-0.5
			c0-0.3-0.2-0.4-0.4-0.6c-0.1,0-0.2-0.2-0.2-0.3c0-1.1-0.1-2.1-0.1-3.2c0-0.3,0.1-0.5,0.2-0.8c0.1-0.2,0.2-0.4,0.2-0.5
			c0-0.4,0-0.8,0-1.1c0-0.4-0.2-0.7-0.6-0.9c-0.1,0-0.1-0.2-0.1-0.3c0.3-1.8,0.6-3.6,1.4-5.3c0.8-1.6,1.8-3,3.4-3.8
			c0.7-0.4,1.4-0.6,2.1-0.8c0.7-0.2,1.4-0.4,2.2-0.2c0.6,0.1,1.2,0,1.8,0c0.4,0,0.7-0.2,0.9-0.5c0.1-0.2,0.3-0.3,0.6-0.3
			C31.7,9,32.1,8.5,32,8c0-0.7,0-1.4-0.1-2c0-0.5-0.1-0.9-0.1-1.4C31.8,4.2,31.6,4,31.2,4c-0.3,0-0.6,0-1,0.1
			c-0.4,0.1-0.7,0.1-1.1,0c-0.2,0-0.4,0-0.6,0c-0.3,0-0.6,0.1-0.8,0.2c-1.7,0.1-3.2,0.5-4.8,1c-2.2,0.8-4.1,1.9-5.6,3.7
			c-1.6,1.9-2.4,4.1-2.8,6.5c-0.2,1.3-0.4,2.5-0.6,3.8c0,0.2-0.1,0.3-0.3,0.3c-0.6,0-0.9,0.2-1.1,0.8c-0.2,0.8-0.2,1.5,0.2,2.2
			c0,0.1,0.1,0.2,0.1,0.3c0,0.9-0.1,1.8-0.1,2.8c0,0.1,0,0.2-0.1,0.4c-0.1,0.3-0.3,0.5-0.4,0.8c-0.1,0.1-0.2,0.2-0.3,0.3
			c-0.5,0.3-1,1.5-0.7,2.1c0,0,0,0,0,0c0.2,0.2,0.1,0.4-0.1,0.6c-0.2,0.1-0.4,0.3-0.5,0.4c-0.7,0.4-1.4,0.9-2.1,1.3
			c-0.3,0.2-0.5,0.5-0.6,0.9c-0.2,0.8-0.5,1.6-0.7,2.5c-0.4,2-0.7,4-1,6.1c-0.4,2.7-0.7,5.4-1,8c-0.1,0.5-0.1,1-0.1,1.5
			c0,0.4,0.3,0.6,0.6,0.7c0.2,0.1,0.4,0.1,0.6,0.1c0,0.2,0,0.4,0,0.5c0,0.2,0,0.4,0,0.6c0,0.1,0,0.3,0.1,0.4c0.1,0.2,0.2,0.9,0,1
			c-0.3,0.2-0.3,0.4-0.3,0.7c0,0.3-0.1,0.7-0.1,1c0,0.3,0,0.6,0.1,0.9c0,0.2,0,0.5,0.1,0.6c0.2,0.2,0.2,0.4,0.1,0.6
			C6.3,58.5,6.2,59,6,59.5c-0.1,0.5-0.2,1-0.3,1.6c-0.9,3.4-1.3,7-1.4,10.5c-0.1,2.8,0.1,5.6,0.5,8.5c0.3,2.4,0.9,4.7,2,6.9
			c0.9,1.6,1.9,3.1,3.1,4.5c1.6,1.8,3.6,3,5.7,4.1c0.3,0.1,0.5,0.3,0.8,0.4c-0.1,0.1-0.2,0.1-0.2,0.1c-1.1,0.1-2.2,0.1-3.3,0.2
			c-2.8,0-5.7,0.2-8.5,0.5c-1,0.1-2,0.2-3,0.4c-0.1,0-0.2,0.1-0.3,0.1c0,0,0,0.1,0,0.1c0.1,0.1,0.2,0.1,0.3,0.2
			c0.4,0.1,0.8,0.2,1.3,0.3c2.7,0.3,5.4,0.3,8.2,0.3c2.5,0,5.1-0.1,7.6-0.2c1.3,0,2.6-0.1,3.9-0.1c2.7,0,5.4,0,8.1,0.1
			c0.2,0,0.4,0,0.6,0c0,0.2,0,0.4,0,0.7c-4.3,0.1-8.6,0-12.9,0.2c1.5,0.1,2.9,0.1,4.4,0.1c2.5,0,5,0,7.4,0.1c0.4,0,0.8,0,1.2,0.1
			c0.9,0.2,1.7,0.4,2.6,0.6c0.1,0,0.1,0,0.2,0.1c0,0,0,0.1,0,0.1c-4.2,0-8.5,0-12.7-0.2c0.8,0.1,1.6,0.3,2.4,0.3
			c1.9,0.1,3.7,0.2,5.6,0.2c2.3,0,4.5,0,6.8,0c1.2,0,2.3,0.1,3.5,0.1c2.2,0,4.4-0.1,6.5-0.1c4.4,0,8.9,0,13.3,0
			c3.7,0,7.5-0.1,11.2-0.2c1.8,0,3.6-0.1,5.4-0.2c1-0.1,2-0.3,3-0.4c0.4-0.1,0.8-0.2,1.3-0.2c2.6,0,5.2,0,7.8,0c1.4,0,2.9,0,4.3-0.1
			c0.2,0,0.5-0.1,0.7-0.1c0,0,0-0.1,0-0.1c-0.1,0-0.3,0-0.4-0.1c-1.2,0-2.4,0-3.7,0c-2.4,0-4.8-0.1-7.2-0.1c-0.7,0-1.4-0.1-2.1-0.1
			c-0.2,0-0.3-0.1-0.2-0.3c0-0.4,0.1-0.5,0.6-0.5c1,0,2.1,0,3.1-0.1c1.9,0,3.8-0.1,5.6-0.1c0.1,0,0.2,0,0.3,0c0,0,0,0,0-0.1
			c-0.1-0.1-0.2-0.2-0.4-0.3c0.2,0,0.2-0.1,0.3-0.1c1.3,0,2.6,0,3.9,0c1.9,0,3.8,0,5.6,0c0.2,0,0.5,0,0.7-0.1c0,0,0-0.1,0-0.1
			C98.9,96.7,98.8,96.6,98.7,96.6z M30.4,5.6c0-0.2,0.2-0.3,0.5-0.3c0,0.8-0.1,1.6-0.1,2.5c0,0-0.1,0-0.1,0c0-0.2-0.1-0.3-0.1-0.5
			c-0.1-0.3-0.1-0.7-0.2-1C30.3,6,30.3,5.8,30.4,5.6z M29.5,5c0.1,0,0.2,0,0.4,0c0.2,0.9,0.3,1.7,0.1,2.6c-0.3,0-0.6,0-0.8,0
			c-0.1,0-0.3-0.1-0.3-0.2c-0.1-0.6-0.2-1.1-0.2-1.7C28.7,5.4,29.2,5.1,29.5,5z M28,5.5c0.1-0.3,0.4-0.4,0.6-0.5
			c-0.1,0.2-0.3,0.3-0.4,0.5c0,0,0,0,0,0.1c0.1,0,0.2,0,0.3,0c0,0.7,0,1.4,0,2.1c0,0-0.1,0-0.1,0c0-0.1-0.1-0.2-0.1-0.3
			c0-0.2-0.1-0.2-0.3-0.3c-0.1,0-0.2-0.1-0.2-0.2C27.8,6.4,27.8,6,28,5.5z M67.7,87.2c-0.3,0.3-0.6,0.5-0.9,0.7
			c-1.3,1.1-2.2,2.4-2.9,4c-0.1,0.2-0.2,0.4-0.3,0.7c0-0.8,0-1.6,0-2.4c-0.3-0.3-0.5-0.1-0.6,0.1c-0.5,0.7-1,1.4-1.5,2.1
			c-0.1,0.2-0.2,0.2-0.4,0.1c-0.3-0.2-0.6-0.4-0.8-0.7c-0.3-0.3-0.1-0.7,0-1c0.3-0.7,0.9-1.2,1.6-1.6c0.6-0.3,1.1-0.7,1.7-1
			c0,0,0-0.1,0-0.1c-0.2,0.1-0.5,0.1-0.7,0.2c-0.8,0.3-1.7,0.6-2.5,0.8c-0.7,0.2-1.3,0.7-1.8,1.2c-0.2,0.2-0.4,0.4-0.6,0.6
			c0,0-0.1-0.1-0.1-0.1c0.1-0.2,0.2-0.4,0.3-0.5c0.4-0.4,0.8-0.9,1.3-1.3c0.1-0.1,0.4-0.2,0.6-0.2c0.5-0.1,1-0.2,1.3-0.6
			c-0.3-0.5-0.5-0.5-1.7,0.1c0.1-0.3,0.1-0.6,0.2-0.9c0-0.1,0.1-0.1,0.2-0.1c0.3,0,0.7-0.1,1,0c1.3,0.1,2.6-0.2,4-0.4
			c0.8-0.1,1.7-0.1,2.5-0.2c0.1,0,0.3,0.2,0.3,0.3C67.9,87,67.8,87.2,67.7,87.2z M62.9,93.8c-0.6-0.3-0.8-0.8-0.6-1.5
			c0.2-0.7,0.7-1.2,1.3-1.6C63,91.9,63,93,63.7,94.2c-0.4-0.1-0.8-0.1-1.1-0.2c0,0,0-0.1,0-0.1c0.2,0,0.5,0,0.7,0c0,0,0,0,0-0.1
			C63.1,93.9,63,93.8,62.9,93.8z M59.9,92.3c0.4,0.4,0.8,0.8,1.3,0.9c0.3,0.1,0.7,0.3,0.9,0.7c-0.8-0.2-1.5-0.4-2.1-0.9
			c-0.3-0.3-0.7-0.7-1-1.1c-0.3-0.4-0.2-0.8,0-1.2c0.3-0.6,0.9-1,1.6-1.2c-0.2,0.2-0.3,0.5-0.5,0.7c-0.3,0.5-0.5,1-0.5,1.6
			C59.7,91.9,59.8,92.1,59.9,92.3z M49.2,90.9c-0.4-0.5-0.8-0.9-1.6-0.9c0.1,0.1,0.1,0.2,0.2,0.3c0.2,0.3,0.5,0.6,0.7,0.9
			c0.2,0.2,0.2,0.5,0,0.7c-0.2,0.3-0.5,0.6-0.9,0.7c-0.2,0.1-0.2,0-0.3-0.1c-0.1-0.2-0.2-0.5-0.2-0.7c-0.6-1.8-1.8-3-3.4-4
			c-0.7-0.4-1.4-0.7-2.1-1.1c0.5,0,0.9,0,1.3,0.1c1.3,0.1,2.6,0.3,4,0.4c0.3,0,0.7,0.1,1,0.2c0.1,0,0.3,0.2,0.4,0.3
			c-0.6-0.1-1.2-0.2-1.9,0.1c0.2,0,0.5,0.1,0.7,0.1c0.7,0.1,1.2,0.4,1.7,1c0.3,0.4,0.6,0.8,0.9,1.2c-1.1-0.9-2.4-1.2-3.8-1
			c0,0,0,0.1,0,0.1c0.1,0.1,0.3,0.2,0.4,0.2c0.3,0,0.6,0,0.9,0c0,0,0.1,0,0.1,0c0.6,0.3,1.1,0.5,1.7,0.8c0.6,0.4,1.2,1.3,1.1,2.1
			c0,0.1-0.1,0.3-0.2,0.4C49.9,92,49.6,91.4,49.2,90.9z M49.2,93.1c-0.4,0.2-0.7,0.5-1.1,0.7c-0.1,0.1-0.2,0.1-0.4,0.1
			c-0.1-0.3-0.1-0.4,0.2-0.6c0.6-0.3,1.1-0.7,1.3-1.4c0,0,0,0,0.1-0.1c0.1,0.1,0.1,0.2,0.2,0.3C49.7,92.6,49.6,92.8,49.2,93.1z
			 M35.3,73.9c0.3,1.2,0.5,2.3,0.8,3.6c-0.1,0-0.2,0-0.3-0.1c-0.6-0.4-1-0.9-1-1.6c0-0.4-0.1-0.8-0.2-1.1c0-0.1,0-0.3-0.1-0.4
			C34.8,74.1,35,74,35.3,73.9z M34.5,74.1c0-0.2-0.1-0.4-0.1-0.6c0-0.5,0-0.5,0.4-0.5c0.2,0,0.3,0,0.3,0.2c0,0.2,0,0.4-0.2,0.4
			c-0.1,0-0.2,0.1-0.3,0.1C34.7,73.9,34.6,74,34.5,74.1z M36,74.6c0-0.1,0-0.2,0-0.4c0.3,0.1,0.6,0.3,0.9,0.4c0,0,0.1,0.1,0.1,0.1
			c0.1,0.7,0.2,1.5,0.3,2.2c0,0.3,0.1,0.5,0.1,0.8c-0.3-0.1-0.5-0.1-0.7-0.2c-0.1,0-0.1-0.1-0.1-0.2C36.3,76.5,36.1,75.5,36,74.6z
			 M37.4,74.9c0,0,0-0.1,0-0.2c0.3,0.1,0.6,0.2,0.8,0.3c0,0,0.1,0.1,0.1,0.1c0.3,0.9,0.4,1.9,0.4,2.9c-0.3,0-0.5-0.1-0.7-0.1
			c-0.1,0-0.1-0.1-0.2-0.2C37.7,76.8,37.5,75.9,37.4,74.9z M38.7,75c0.3,0.1,0.6,0.2,0.8,0.3c0.1,0,0.1,0.1,0.1,0.2
			c0.1,0.8,0.2,1.7,0.3,2.5c0,0,0,0,0,0c-0.8,0.1-0.9,0-1-0.8C38.9,76.6,38.8,75.9,38.7,75z M39.9,75.6c0,0,0-0.1,0-0.1
			c0.2,0.1,0.4,0.1,0.6,0.2c0,0,0.1,0.1,0.1,0.2c0.2,0.8,0.3,1.6,0.5,2.5c-0.2,0-0.5,0-0.7-0.1c-0.1,0-0.2-0.1-0.2-0.1
			C40.2,77.2,40.1,76.4,39.9,75.6z M41.1,75.7c0.3,0.1,0.5,0.1,0.7,0.2c0.2,0.8,0.3,1.6,0.5,2.4c-0.4,0-0.6-0.1-0.7-0.5
			c-0.1-0.4-0.2-0.8-0.3-1.3C41.3,76.2,41.2,76,41.1,75.7z M40.3,75c-1.4-0.3-2.7-0.8-4-1.2c-0.4-0.1-0.4-0.2-0.4-0.7
			c0.7,0.2,1.4,0.5,2,0.7c1.6,0.6,3.4,0.9,5.1,1.1c2.3,0.4,4.7,0.5,7,0.6c0.2,0,0.3,0,0.5,0c0,0.2,0,0.4-0.1,0.5
			c-0.8,0-1.5-0.1-2.3-0.1C45.6,75.9,42.9,75.6,40.3,75z M55.5,75.9c0-0.3-0.2-0.4-0.5-0.5c-0.8,0-1.6,0-2.5,0
			c-0.4,0-0.6,0.3-0.7,0.7c-0.1,0.5-0.2,1.1-0.3,1.6c-0.3-0.6-0.2-1.2-0.1-1.8c0-0.4,0.4-0.7,0.9-0.7c0.9,0,1.8,0,2.8,0
			c0.4,0,0.9,0.1,1.4,0.1c-0.1,1.1-0.2,2.2-0.3,3.3c0,0.4-0.3,0.6-0.7,0.5c0.1-0.7,0.1-1.3,0.2-2C55.6,76.7,55.6,76.3,55.5,75.9z
			 M52.5,79.1c-0.1,0-0.2-0.1-0.2-0.2c-0.1-0.8-0.1-1.7,0-2.5c0,0,0-0.1,0-0.1c0.1-0.5,0.1-0.5,0.6-0.5c0.5,0,1,0,1.5,0
			c0.3,0,0.5,0.2,0.5,0.4c0.1,0.3,0.1,0.6,0.1,0.9c0,0.6,0.1,1.2,0.1,1.7c0,0.1,0,0.2,0,0.3C54.3,79.1,53.4,79.2,52.5,79.1z
			 M53.3,80.1c-0.2,0.1-0.4,0.2-0.6,0.2c-0.1,0-0.2-0.1-0.2-0.1c0.1-0.1,0.1-0.1,0.2-0.2C52.9,80,53.1,80,53.3,80.1
			C53.3,80,53.3,80,53.3,80.1z M51.4,81.2c0.9,0.1,1.8,0.2,2.7,0.2c0.6,0,1.2-0.2,1.7-0.3c0.4-0.1,0.5-0.3,0.6-0.7
			c0-0.3,0-0.5,0.1-0.8c0.8,0,1.6,0,2.3,0c0.8,0,1.5-0.1,2.3-0.1c0.1,1.8,0.2,3.5,0.3,5.2c-0.5,0-0.9,0-1.4,0c-0.2,0-0.4,0-0.5,0.1
			c-0.6,0.2-1,0.6-1,1.2c0,0.5,0.1,1,0.2,1.5c0.1,0.5,0,0.9-0.4,1.4c-0.6,0.8-1.1,1.6-1.7,2.4c-0.3,0.5-0.3,1.1-0.2,1.6
			c0,0.4,0.1,0.9,0.2,1.3c-1.7,0-3.5-0.1-5.2-0.1c0.1-2.4-1.4-5.4-2.3-6c0.3-0.2,0.3-0.4,0.4-0.7c0-0.4,0.1-0.9,0-1.3
			c0-0.7-0.4-1.1-1.1-1.2c-0.5-0.1-0.9-0.2-1.4-0.2c-0.2,0-0.2-0.1-0.2-0.3c0-0.6,0.1-1.2,0.1-1.8c0.1-1,0.1-1.9,0.1-2.9
			c0.2,0,0.4,0,0.6,0c0.9,0,1.9,0,2.8,0c0.2,0,0.3,0.1,0.3,0.3c0,0.3,0,0.6,0.1,0.9C50.9,81,51.1,81.2,51.4,81.2z M63.2,75.9
			c0.3,0,0.6-0.1,0.9-0.1c0.1,0.8,0.2,1.7,0.3,2.5c-0.3,0-0.6,0-0.9,0.1C63.4,77.5,63.3,76.7,63.2,75.9z M63.4,84.5
			c-0.2,0-0.3,0-0.5,0c0-1.3-0.5-2.6,0.1-3.9c0,0,0.1,0,0.1,0C63.2,81.9,63.3,83.2,63.4,84.5z M64.3,79.6c0-0.1,0.1-0.1,0.1-0.2
			c0,0.1,0.1,0.1,0.1,0.2c0.1,0.5,0.2,1.1,0.2,1.6c0,0.9,0.1,1.9,0.1,2.8c0,0.5,0,0.5-0.5,0.5c0-0.1,0-0.1,0-0.1c0-1.4,0-2.7,0-4.1
			C64.2,80.1,64.3,79.8,64.3,79.6z M64.7,78.3c-0.1,0-0.2,0-0.2-0.2c-0.1-0.7-0.1-1.4-0.2-2.1c0-0.2,0-0.3,0.2-0.3
			c0.2,0,0.4-0.1,0.7-0.2c0.1,0.6,0.1,1.3,0.2,1.9c0,0.1,0,0.2,0,0.2C65.4,78.2,65.4,78.3,64.7,78.3z M61.3,75.6
			c-1.3,0.1-2.6,0.3-3.9,0.4c0-0.2,0-0.4,0-0.6c2.1-0.2,4.1-0.4,6.1-0.8c2-0.4,4-0.9,5.8-1.8c-0.1,1-0.3,1.1-0.9,1.2
			C66.1,74.8,63.7,75.3,61.3,75.6z M59.1,76.5c0.4-0.1,0.8-0.1,1.2-0.2c0.2,0.8,0.3,1.5,0.5,2.3c-0.3,0-0.6,0.1-1,0.1
			c-0.1,0-0.2-0.1-0.2-0.1C59.4,77.9,59.2,77.2,59.1,76.5z M59.3,78.7c-0.4,0-0.9,0-1.3,0c-0.2-0.7-0.4-1.4-0.5-2.1
			c0.5,0,0.9,0,1.4,0C59,77.2,59.1,77.9,59.3,78.7z M60.4,76.3c0.3,0,0.7-0.1,1.1-0.1c0.1,0.7,0.3,1.4,0.4,2.1c0,0,0.1,0,0.1,0
			c-0.1-0.7-0.1-1.4-0.2-2.2c0.2,0,0.4,0,0.6-0.1c0.1,0.8,0.1,1.6,0.2,2.4c-0.5,0.1-1,0.1-1.5,0.2C60.9,77.8,60.7,77.1,60.4,76.3z
			 M62.5,82.3c0.2,0.8,0.1,1.5,0.1,2.1c0,0-0.1,0-0.1,0C62.5,83.8,62.5,83.1,62.5,82.3z M57.5,78.8c-0.2,0-0.3,0-0.4,0
			c0.1-0.4,0.1-0.9,0.2-1.4C57.3,77.9,57.4,78.3,57.5,78.8z M52.3,97.2c-0.3,0-0.5,0-0.8-0.1c-0.1,0-0.2-0.1-0.2-0.1
			c0-0.1,0.1-0.3,0.2-0.3c0.1-0.1,0.3-0.1,0.5-0.1c1.9,0,3.9-0.1,5.8,0.2c0.2,0,0.2,0.1,0.2,0.2c0,0.2-0.1,0.2-0.2,0.2
			c-0.2,0-0.4,0-0.6,0c-0.8,0-1.6,0-2.4,0c0,0,0,0,0,0C53.9,97.2,53.1,97.2,52.3,97.2z M51.6,95.4c1.3,0,2.5,0,3.8,0
			c0.3,0,0.6,0,0.9,0c0.3,0,0.4,0.1,0.5,0.3c0,0.1,0.1,0.2,0.2,0.4c-0.1,0-0.2,0-0.3,0c-1.5,0-3,0-4.5-0.1c-0.2,0-0.4,0-0.5,0
			c-0.3,0-0.4-0.1-0.3-0.4C51.3,95.4,51.4,95.4,51.6,95.4z M51.4,94.8c0-0.2,0-0.3,0-0.4c1.6,0,3.3,0,4.9,0.1c0.3,0,0.4,0.1,0.3,0.4
			C54.9,94.8,53.1,94.8,51.4,94.8z M57.1,91.6c0.1,0.5,0.3,1,0.4,1.5C57,92.5,56.9,92,57.1,91.6z M44.1,76.4c0,0,0-0.1,0-0.1
			c0.3,0,0.5,0.1,0.8,0.1c0.1,0,0.2,0.1,0.3,0.2c0.2,0.7,0.3,1.4,0.4,2.1c-0.4,0-0.7-0.1-1-0.1c0,0-0.1-0.1-0.1-0.1
			C44.4,77.8,44.3,77.1,44.1,76.4z M44.1,84.4c-0.2,0-0.4,0-0.6,0c0.1-0.9,0.2-1.9,0.3-2.8c0,0,0.1,0,0.1,0
			C44,82.5,44.1,83.5,44.1,84.4z M45.3,79.8c0.2-0.1,0.3,0,0.3,0.3c0,1.2,0.1,2.5,0.1,3.7c0,0.1,0,0.2,0,0.4c0,0.5,0,0.5-0.6,0.4
			C45.2,83,45.2,81.4,45.3,79.8z M45.6,76.4c0.4,0,0.7,0,1,0.1c0.1,0,0.1,0.1,0.2,0.1c0.2,0.7,0.4,1.4,0.6,2.1c-0.4,0-0.8,0-1.2,0
			c0,0-0.1-0.1-0.1-0.1C45.9,77.9,45.7,77.2,45.6,76.4z M47.1,76.5c0.3,0,0.6,0.1,1,0.1c0,0,0.1,0.1,0.1,0.1c0.2,0.7,0.3,1.3,0.5,2
			c-0.3,0-0.7,0-1,0c-0.1,0-0.1-0.1-0.2-0.2C47.4,77.9,47.3,77.2,47.1,76.5z M49.4,78.8c0,0-0.1-0.1-0.1-0.2
			c-0.1-0.6-0.3-1.3-0.4-1.9c0.5,0,1.1,0,1.6,0c0.1,0.7,0.2,1.4,0.3,2.1C50.3,78.8,49.8,78.8,49.4,78.8z M43.7,76.2
			c0.1,0.8,0.2,1.6,0.3,2.4c-0.3-0.1-0.6-0.1-0.9-0.2c0,0-0.1-0.1-0.1-0.1c-0.2-0.7-0.4-1.4-0.6-2.1c0,0,0-0.1,0-0.2
			C42.9,76.1,43.3,76.2,43.7,76.2z M43.9,85.4c1.3,0.1,2.6,0.2,3.9,0.4c0.6,0.1,0.6,0.1,0.7,0.7c0,0.1,0,0.2,0,0.2c0,0,0,0,0,0.1
			c-1-0.3-2.1-0.3-3.1-0.4c-1.3-0.1-2.5-0.2-3.8-0.3c0,0-0.1,0-0.1,0c-0.1-0.4,0.1-0.7,0.5-0.7C42.6,85.4,43.3,85.3,43.9,85.4z
			 M50.5,97.8c0.1,0,0.3,0.1,0.4,0c1.3-0.4,2.6-0.2,3.9-0.2c1.3,0,2.6,0,3.9,0.1c0.2,0,0.4,0,0.7,0c0.7,0,1.3,0,1.9,0.3
			c0.4,0.1,0.8,0.2,1.2,0.2c0,0,0,0.1,0,0.1c-4.3,0.2-8.6,0.1-12.9,0c0,0,0-0.1,0-0.1C49.7,98.1,50.1,97.9,50.5,97.8z M59.9,88.5
			c0.4-0.2,0.8-0.5,1.3-0.4c0,0,0,0.1,0,0.1c-0.4,0.1-0.9,0.3-1.3,0.4C59.9,88.6,59.9,88.5,59.9,88.5z M66.9,85.3c0.2,0,0.3,0,0.5,0
			c0.3,0.1,0.5,0.4,0.4,0.7c0,0-0.1,0.1-0.2,0.1c-1.1,0-2.2,0-3.3,0.1c-0.8,0-1.6,0.1-2.4,0.1c0,0,0,0,0,0.1c-0.7,0-1.4,0-2.1,0
			c-0.2,0-0.4,0-0.4-0.2c0-0.2,0.1-0.4,0.3-0.4c0.3-0.1,0.6-0.2,1-0.2c1.3-0.1,2.6-0.1,3.8-0.2C65.2,85.3,66,85.3,66.9,85.3z
			 M65.7,78.1c-0.1-0.6-0.1-1.1-0.2-1.7c0-0.3,0-0.5-0.1-0.8c0-0.2,0-0.3,0.2-0.3c0.3,0,0.5-0.1,0.8-0.1c0.1,0.9,0.2,1.8,0.2,2.7
			C66.4,78,66.1,78.1,65.7,78.1z M67.3,77.9c-0.1,0-0.1,0-0.1,0c-0.1-0.8-0.2-1.5-0.3-2.3c-0.1-0.5-0.1-0.5,0.4-0.6
			c0.2-0.1,0.4-0.1,0.6-0.2c0.1,0.8,0.1,1.5,0.2,2.2c0,0,0,0,0,0C68,77.9,68,77.9,67.3,77.9z M68.9,75.1c-0.1,0.7-0.1,1.5-0.2,2.2
			c0,0.3-0.2,0.4-0.4,0.3c-0.1-0.8-0.1-1.7-0.2-2.5c0-0.5,0-0.5,0.4-0.6c0.1,0,0.2-0.1,0.4-0.1C68.9,74.8,68.9,75,68.9,75.1z
			 M69.9,75.5c-0.1,0.6-0.2,1.3-0.3,1.9c0,0.2-0.3,0.3-0.6,0.3c0.1-0.4,0.1-0.7,0.2-1.1c0.1-0.5,0.1-1,0.2-1.4c0-0.1,0-0.3,0-0.4
			c0-0.2,0-0.3,0.2-0.3c0.2,0,0.5-0.1,0.5,0.2C70,74.9,70,75.2,69.9,75.5z M71.2,73.9c-0.2,1-0.4,2-0.6,2.9
			c-0.1,0.3-0.3,0.6-0.6,0.6c0.1-0.4,0.2-0.8,0.3-1.2c0.1-0.4,0.1-0.9,0.2-1.3c0-0.2,0.1-0.3,0.2-0.5c0.1-0.2,0-0.3-0.1-0.3
			c-0.3,0-0.4-0.3-0.4-0.5c0-0.3,0.1-0.6,0.1-1c0.3,0.3,0.5,0.6,0.7,0.9C71.2,73.5,71.2,73.7,71.2,73.9z M71.2,73.1c0,0-0.1,0-0.2,0
			c-0.2-0.2-0.5-0.4-0.7-0.6c-0.1-0.1,0-0.3-0.1-0.5c0.3,0.2,0.6,0.4,0.9,0.5C71.4,72.6,71.4,73,71.2,73.1z M77.2,71
			c-0.2,0.5-0.7,0.7-1.1,0.7c0-0.1,0.1-0.2,0.1-0.2c0.9-0.9,1.1-2.1,0.9-3.3c-0.2-1.3-0.5-2.6-0.8-3.9c-0.3-1.4-0.8-2.8-1.2-4.2
			c0-0.1,0-0.1,0-0.2c0.8,1.7,1.4,3.6,1.7,5.5c0.2,1,0.4,2.1,0.6,3.1C77.6,69.4,77.6,70.2,77.2,71z M78.5,69.2
			c-0.2-3-1.2-5.8-2.1-8.6c0.1,0.2,0.2,0.3,0.2,0.5c0.6,1.7,1.2,3.4,1.6,5.2c0.2,0.7,0.3,1.4,0.3,2C78.6,68.7,78.5,68.9,78.5,69.2z
			 M80.3,69.1c-0.2,0-0.3,0.1-0.5,0.1c0.6-0.2,0.6-0.7,0.6-1.2c0-0.4-0.1-0.7-0.2-1.1c-0.1,0.8,0.1,1.6-0.6,2.2c0-0.8,0-1.6-0.3-2.3
			c-0.1-0.3-0.3-0.5-0.4-0.8c-0.1-0.3-0.1-0.4,0.2-0.4c0.3,0,0.7,0,1,0c0.5,0,0.8,0.3,0.9,0.8c0.1,0.7,0,1.4-0.2,2
			C80.8,68.9,80.6,69.1,80.3,69.1z M89.5,64.3c0.9,0.4,1.7,0.9,2.1,1.9c0.3,0.7,0.2,1.5,0.1,2.2c-0.1,0.5-0.3,0.8-0.8,1
			c-0.4,0.1-0.4,0.1-0.7-0.2c-0.1-0.1-0.1-0.2-0.2-0.3c0.2,0,0.4-0.1,0.5,0.2c0,0,0.2,0,0.2,0c0.2-0.2,0.4-0.5,0.5-0.7
			c-0.3,0-0.5,0-0.7,0c0-0.4,0-0.7-0.1-1.1c-0.1-0.5-0.2-0.9-0.3-1.4c0,0,0-0.1-0.1-0.1c-0.1-0.1-0.3-0.1-0.4-0.2
			c0,0.1-0.1,0.2-0.1,0.3c0.2,0.8,0.1,1.6-0.2,2.3c-0.2,0.5-0.6,0.9-1,1.2c-0.4,0.2-0.7,0-0.7-0.5c0.2-0.1,0.5,0.1,0.5-0.2
			c0-0.1-0.2-0.2-0.3-0.3c-0.1-1,0.3-2.1-0.4-3.1c0,0-0.1,0-0.1,0c0,0.2,0,0.3,0,0.5c0,1-0.1,2-0.5,3c-0.2,0.5-0.4,0.9-0.9,1.1
			c-0.3,0.2-0.7,0.3-1,0.3c-0.2,0-0.5-0.2-0.7-0.4c-0.1-0.1,0-0.3,0-0.5c0.2-0.7,0.4-1.4,0.4-2.2c0-0.8-0.2-1.5-0.6-2.1
			C84,65,83.9,64.8,83.7,65c0.7,1.1,0.4,2.2,0.3,3.4c-0.1,0.8-0.6,1.5-1.2,2c-0.3,0.2-0.6,0.3-1,0.4c-0.1,0-0.2-0.1-0.2-0.1
			c-0.1-0.1-0.2-0.2-0.2-0.4c-0.1,0.1-0.2,0.2-0.3,0.3c0.1,0,0.2,0,0.3,0c0,0.1-0.1,0.1-0.1,0.2c-0.4-0.2-0.3-0.2-0.1-0.5
			c0.5-0.8,0.9-1.6,0.8-2.7c0-0.4,0-0.7,0-1c0,0.1,0.1,0.4,0.2,0.7c0.1-0.6-0.2-1.3-0.7-1.7c-0.3-0.3-0.4-0.3-1.8-0.5
			c0.2-0.6,0.6-1,1.1-1.2c0.7-0.3,1.4-0.3,2.1-0.2c0.1,0,0.3,0.1,0.4,0.1c0,0,0.1,0.1,0.1,0.2c0,0.1,0,0.2,0,0.3
			c0.1-0.3,0.3-0.4,0.6-0.4c0.6,0,1.2-0.1,1.8-0.3c0.4-0.1,0.7-0.4,1-0.6C87.6,63.5,88.6,63.9,89.5,64.3z M83.7,63
			c0.1-0.1,0.1-0.3,0.2-0.3c0.3-0.1,0.7-0.2,1.1-0.2c0.4-0.1,0.7-0.1,1.1-0.2c-0.1,0.4-0.2,0.6-0.5,0.7c-0.5,0.1-1,0.2-1.6,0.2
			C83.8,63.1,83.7,63,83.7,63z M76.1,51.2c0.4,0.3,0.9,0.5,1.3,0.8c2.2,1.4,4.1,3.2,5.8,5.2c0.9,1.1,1.7,2.2,2.4,3.4
			c0.2,0.3,0.3,0.7,0.4,1c-0.7,0.1-1.4,0.3-2,0.4c-0.6-2.3-1.9-4.1-3.3-6C79.5,54.2,77.8,52.7,76.1,51.2
			C76.1,51.2,76.1,51.2,76.1,51.2z M76.8,55.4c1.9,1.2,3.4,2.9,4.6,4.8c0.3,0.6,0.7,1.2,1,1.8c0,0,0,0.1,0,0.1
			c0.2,0.6,0.2,0.7-0.5,0.7c-1.4,0.1-2.6,0.6-3.3,1.9c0-0.2-0.1-0.3-0.1-0.4c-0.2-1.3-0.7-2.5-1.1-3.8c-0.3-0.7-0.8-1.2-1.6-1.4
			c-0.4-0.1-0.8-0.2-1.3-0.3c0.2-1.4,0.4-2.8,0.7-4.4C75.8,54.9,76.3,55.1,76.8,55.4z M81.5,36c0.1,0,0.2,0.2,0.2,0.2
			c0,0.3,0,0.5-0.1,0.8c-0.3,1.8-0.6,3.6-0.8,5.4c-0.3,1.8-0.5,3.6-0.8,5.4c-0.1,0.5-0.1,1-0.2,1.5c-0.2,0-0.3-0.1-0.3-0.3
			c0.2-1.3,0.3-2.6,0.5-3.9c0.3-2.4,0.7-4.8,1-7.2c0-0.2,0.1-0.5,0.1-0.7c0.2-0.8,0.1-0.9-0.5-1.4C80.9,35.9,81.2,36,81.5,36z
			 M79.9,36.1c0.2,0,0.5,0.1,0.6,0.2c0.1,0.1,0.1,0.4,0.1,0.5c0,0.4-0.1,0.7-0.2,1.1c-0.2,1.4-0.4,2.8-0.6,4.1
			c-0.3,2.2-0.6,4.4-0.9,6.6c0,0.1,0,0.2-0.1,0.4c-0.4,0.1-0.6,0-0.6-0.4c0.2-1.8,0.4-3.6,0.6-5.4c0.3-2.3,0.7-4.5,0.8-6.8
			C79.8,36.3,79.9,36.1,79.9,36.1z M79.2,36.1c0-0.1,0.1-0.2,0.1-0.3c0.2,0.1,0.2,0.2,0.2,0.4c-0.2,1.2-0.3,2.3-0.5,3.5
			c-0.3,2.3-0.6,4.5-0.9,6.8c-0.1,0.8-0.2,1.7-0.3,2.5c-0.4,0-0.5-0.1-0.5-0.5c0.2-1.6,0.4-3.2,0.6-4.7c0.3-2.1,0.7-4.2,1.1-6.2
			C79.1,37,79.1,36.6,79.2,36.1z M78.1,35.5c0,0.1,0.1,0.2,0.1,0.2C78.1,36.4,78,37,78,37.6c-0.3,1.9-0.6,3.9-0.9,5.8
			c-0.2,1.6-0.5,3.3-0.7,4.9c0,0.2,0,0.3-0.1,0.5c-0.1,0-0.2,0-0.4,0c0-0.3,0.1-0.5,0.1-0.7c0.4-2.5,0.8-5,1.2-7.5
			c0.2-1.6,0.5-3.2,0.7-4.8c0,0,0-0.1,0-0.1C78,35.7,78,35.6,78.1,35.5z M80.2,23.6c0.3,0.7,0.2,1.4,0.1,2.1
			c-0.1,0.9-0.4,1.8-0.9,2.5c0,0.1-0.1,0.1-0.1,0.2c0,0,0,0-0.1,0c0.3-0.9,0.5-1.7,0.8-2.6c0.1-0.3,0.2-0.6,0.2-0.9
			c0.1-0.4-0.1-0.7-0.5-0.9c-0.6-0.3-1.2-0.6-1.8-0.9c-0.1-0.1-0.2-0.2-0.3-0.3c0.1-0.1,0.3-0.2,0.4-0.3
			C79,22.1,79.8,22.6,80.2,23.6z M57.2,5.7c0.1,0.3,0.2,0.6,0.2,1c0,0.3,0.1,0.5,0.1,0.8c0,0.1-0.1,0.2-0.1,0.2c-0.3,0-0.5,0-0.8,0
			C57,7.5,57,7.5,56.9,7.1c0-0.1-0.1-0.3-0.2-0.4C56.4,6.1,56.5,5.9,57.2,5.7z M44,1.3c0.8-0.4,1.7-0.4,2.5-0.5
			c2.4-0.2,4.8-0.1,7.2-0.2c1.9,0,3.8,0.1,5.6,0.3C59.9,1,60.4,1.2,61,1.3c0,0,0.1,0,0.1,0.1c-2,0-3.9,0-5.9,0c0,0,0,0,0,0
			c0.2,0,0.3,0,0.5,0.1c0,0,0,0.1,0,0.1C51.8,1.3,47.9,1.6,44,1.3z M53.7,5.8c0-0.1-0.1-0.3-0.1-0.3c-0.1,0-0.3,0.1-0.4,0.1
			C53.1,5.9,53,6.2,53,6.5c0,0.2,0,0.4-0.1,0.6c0,0.1-0.1,0.2-0.1,0.2c-0.3,0-0.6,0-1,0c0.3-0.7,0.5-1.2,0.7-1.8c-0.2,0-0.4,0-0.6,0
			c-0.1,0-0.1-0.1-0.2-0.1c0.1,0,0.1-0.1,0.2-0.1c0.4,0,0.7,0,1.1,0.1c0.6,0,1.3,0.1,1.8,0.1C55.1,6,55.4,6.5,55.7,7
			c0,0,0.1,0,0.1,0c-0.2-0.5-0.4-1-0.5-1.5c0.3-0.1,0.4-0.1,0.4,0.2c0.1,0.5,0.2,1.1,0.3,1.6c-0.6,0-1.3,0-2,0
			c-0.2,0-0.3-0.1-0.3-0.3C53.7,6.5,53.7,6.1,53.7,5.8z M51.6,4.6c0-0.2,0.1-0.3,0.3-0.3c1.2,0.1,2.4,0.1,3.7,0.2
			c0.2,0,0.4,0.1,0.3,0.4c-0.5,0-0.9,0-1.4,0c-0.9,0-1.7,0-2.6-0.1C51.8,4.9,51.6,4.8,51.6,4.6z M51.6,3.7
			C51.6,3.7,51.6,3.7,51.6,3.7c0.2-0.1,0.5-0.1,0.7-0.1c1.1,0,2.2,0.1,3.3,0.1c0.2,0,0.4,0,0.5,0.3C54.6,3.9,53.1,3.8,51.6,3.7z
			 M56.1,3c0,0-0.1,0.1-0.2,0.1c-1.5-0.1-3-0.1-4.4-0.2c0,0-0.1,0-0.1,0c0-0.2,0-0.4,0-0.7c0-0.1,0.1-0.1,0.2-0.1
			c1.4,0,2.8-0.1,4.2,0.3C56,2.4,56.2,2.8,56.1,3z M50.6,6.1C50.6,6,51,6,51.3,5.9c-0.2,0.5-0.3,0.9-0.5,1.3c0,0.1-0.2,0.1-0.3,0.1
			c-0.1,0-0.3,0-0.4,0.1c0,0-0.1,0-0.1-0.1C50.2,6.9,50.3,6.5,50.6,6.1z M49.7,4.9c0,0-0.2-0.1-0.2-0.2c0.1-0.1,0.1-0.3,0.2-0.4
			c0.1,0.1,0.1,0.2,0.3,0.3C49.9,4.8,49.8,4.9,49.7,4.9z M49.4,3c0,0.2-0.1,0.4-0.4,0.3c0-0.3,0.1-0.5,0.1-0.7
			c0-0.1,0.1-0.1,0.2-0.2c0,0.1,0.1,0.1,0.1,0.2C49.4,2.7,49.4,2.8,49.4,3z M48.6,6c0-0.1,0.2-0.1,0.2-0.1C48.9,5.9,49,6,49,6.1
			c0,0.2-0.1,0.4-0.2,0.6c-0.1,0.2-0.2,0.4-0.1,0.7c0.1,0.2,0,0.3-0.2,0.3c-0.1,0-0.3,0-0.4,0C48.2,7.1,48.2,6.5,48.6,6z M34.8,12.5
			c0,0.5-0.3,0.9-0.7,0.8C34.2,12.9,34.6,12.8,34.8,12.5z M29.4,20.5c0.5-2.5,1.8-4.5,3.7-6.2c0.2-0.2,0.4-0.3,0.7-0.3
			c0.4,0,0.6-0.2,0.9-0.4c0.8-0.9,1.8-1.5,2.8-2.1c1.5-0.9,3.2-1.4,4.9-1.8c1.4-0.3,2.8-0.6,4.2-0.9c0.7-0.2,1.5-0.4,2.2-0.6
			c1.2-0.3,2.5-0.3,3.8-0.3c1.2,0,2.4,0.1,3.7,0.2c1.3,0.1,2.7,0.2,4,0.4c1.9,0.2,3.7,0.6,5.4,1.3c1.1,0.4,2.1,0.7,3.2,1.2
			c2.2,1.1,4.3,2.4,5.9,4.4c1.1,1.4,1.8,2.9,2.3,4.6c0.1,0.5,0.3,1,0.5,1.4c0.1,0.5-0.3,1.1-0.8,1.2c0.1-0.3-0.1-0.6,0-0.8
			c0.4-0.9,0.1-1.8-0.2-2.7c-0.3-0.9-0.7-1.8-1.3-2.6c-0.8-1.2-1.8-2.2-2.9-3.1c-1.1-0.9-2.3-1.6-3.5-2.2c-1.9-0.9-3.9-1.5-6-1.9
			c-1.6-0.3-3.2-0.5-4.9-0.6c-2.3-0.2-4.6-0.2-7-0.1c-1.3,0-2.6,0.3-3.8,0.6c-1.6,0.4-3.1,0.7-4.7,1c-2.5,0.4-4.6,1.6-6.7,2.9
			c-1.2,0.8-2.4,1.6-3.5,2.6c-1.4,1.3-2.4,3-2.7,4.9c-0.1,0.5-0.2,0.9,0,1.4c-0.2-0.1-0.4-0.1-0.6-0.2
			C29.2,21.2,29.3,20.9,29.4,20.5z M73.3,17.2c-0.9-1.2-1.9-2.2-3.1-3.1c-2.3-1.8-4.9-2.8-7.7-3.4c-1.5-0.3-3.1-0.5-4.6-0.7
			c-1.8-0.2-3.7-0.3-5.5-0.2c-2.7,0.1-5.4,0.4-8.1,1.1c-1.8,0.4-3.5,0.9-5.2,1.6c-1.2,0.5-2.3,1.3-3.3,2c-1.5,1-2.5,2.3-3.3,3.8
			c-0.5,0.9-0.6,1.8-0.6,2.7c0,0.1-0.1,0.3-0.2,0.4c-0.3,0.3-0.6,0.5-0.9,0.7c-0.2,0.2-0.3,0.1-0.4-0.1c-0.3-0.9-0.3-1.8,0-2.7
			c0.4-1.1,0.8-2.2,1.6-3c0.5-0.5,0.9-1,1.5-1.4c1.3-1.1,2.7-1.9,4.1-2.7c0.8-0.4,1.5-0.9,2.3-1.2c0.6-0.3,1.2-0.4,1.9-0.6
			c1-0.2,2-0.5,2.9-0.7c1.4-0.3,2.8-0.6,4.2-0.8c1-0.2,2-0.2,3-0.3c0.8,0,1.6,0,2.4,0c2.7,0,5.5,0.1,8.2,0.6c2,0.3,3.9,0.9,5.7,1.7
			c1.9,0.8,3.5,1.9,5,3.3c1.4,1.3,2.5,2.9,3.2,4.7c0.3,0.8,0.1,1.5-0.4,2.1c-0.2,0.3-0.4,0.3-0.8,0.1c-0.4-0.2-0.5-0.6-0.6-0.9
			C74.5,19.2,74,18.2,73.3,17.2z M74.6,20.7c-0.2-0.1-0.4-0.2-0.6-0.4c-1-0.8-2-1.3-3.2-1.6c-1.6-0.4-3.1-0.9-4.8-1.2
			c-1.6-0.2-3.1-0.5-4.7-0.7c-4.1-0.5-8.1-0.5-12.2-0.2c-3,0.2-6,0.6-8.9,1.3c-1.3,0.3-2.5,0.6-3.8,0.9c-1.6,0.4-3,1.2-4.3,2.2
			c0,0-0.1,0.1-0.1,0.1c0.2-1,0.3-2,0.8-2.9c0.8-1.4,1.8-2.5,3.1-3.4c1.1-0.7,2.1-1.5,3.3-2c1.3-0.5,2.6-0.9,3.9-1.3
			c1.3-0.4,2.7-0.6,4-0.9c1.9-0.4,3.8-0.5,5.8-0.5c3.2-0.1,6.4,0.2,9.6,0.9c1.7,0.3,3.4,0.9,4.9,1.7c2.2,1.2,4.2,2.6,5.7,4.7
			c0.7,0.9,1.2,2,1.5,3.1C74.6,20.6,74.6,20.6,74.6,20.7z M27.1,25.4c0.2,0.7,0.3,1.5,0.5,2.2c0,0,0,0.1,0,0.1c0,0,0,0-0.1,0
			c-0.1-0.1-0.1-0.3-0.2-0.4c-0.3-0.9-0.6-1.9-0.5-2.9c0.2-1.1,1-2,2.1-2.1c0.2,0,0.5,0.2,0.7,0.3c0,0,0,0.2-0.1,0.3
			c-0.4,0.2-0.8,0.5-1.2,0.7c-0.3,0.2-0.6,0.3-0.9,0.5C27.1,24.4,27,24.9,27.1,25.4z M28.2,25.4c-0.1,0-0.3,0-0.3-0.1
			c-0.1-0.1-0.1-0.3,0.1-0.4c0.6-0.4,1.3-0.7,1.9-1.1c0.8-0.5,1.4-1.1,2-1.8c0.8-1,2-1.6,3.2-2.1c1.5-0.6,3.1-1,4.7-1.4
			c2-0.4,4.1-0.8,6.1-1.1c2.2-0.3,4.4-0.5,6.7-0.5c2.3,0,4.6,0,6.9,0.2c1.4,0.1,2.7,0.3,4,0.5c1.2,0.2,2.4,0.3,3.6,0.6
			c1.5,0.4,3.1,0.8,4.6,1.3c0.8,0.2,1.5,0.7,2.1,1.2c0.9,0.7,1.7,1.5,2.6,2.3c0.6,0.5,1.2,0.9,1.8,1.3c0.4,0.3,0.8,0.5,1.2,0.8
			c-0.1,0.2-0.2,0.4-0.3,0.6c-0.7-0.4-1.4-0.7-2-1.2c-1-0.8-2-1.7-3-2.5c-1.2-1-2.5-1.8-4-2.2c-1.7-0.4-3.4-0.8-5.1-1.1
			c-3.9-0.7-7.8-0.9-11.7-0.9c-1.8,0-3.5,0.1-5.3,0.3c-2.4,0.2-4.7,0.5-7,1c-1.5,0.3-2.9,0.7-4.3,1.1c-1.7,0.4-3.2,1.4-4.4,2.7
			C31,23.9,29.7,24.8,28.2,25.4z M29.4,25.5c0.7-0.5,1.4-1,2.1-1.6c0.6-0.5,1-1.1,1.6-1.5c1.3-1.1,2.8-1.9,4.4-2.2
			c1.8-0.4,3.5-0.8,5.3-1.2c2.9-0.6,5.8-0.8,8.7-0.9c3-0.1,6.1-0.1,9.1,0.2c1.6,0.1,3.2,0.5,4.8,0.7c1.7,0.2,3.3,0.6,4.9,1.1
			c1.7,0.5,3.2,1.5,4.4,2.8c0.4,0.5,0.9,0.9,1.4,1.3c0.8,0.6,1.6,1.1,2.4,1.7c0.1,0,0.1,0.2,0.1,0.3c-0.1,0.7-0.3,1.3-0.4,2
			c-0.4,2-0.8,4-1,6c-0.3,2.6-0.8,5.1-1.2,7.6c-0.4,2.4-0.8,4.8-1.2,7.2c-0.3,2-0.6,3.9-0.9,5.9c-0.3,1.8-0.6,3.5-0.9,5.3
			c-0.2,1.3-0.5,2.5-0.7,3.8c-0.3,2.5-0.6,5-0.9,7.5c0,0.2,0,0.3-0.1,0.6c-0.1-0.2-0.2-0.4-0.2-0.6c-0.3,0.1-0.6-0.2-0.7-0.6
			c-0.1-0.7-0.1-1.5,0-2.2c0.3-2.3,0.6-4.6,0.9-6.9c0.3-2,0.6-4.1,0.9-6.1c0.3-2.1,0.6-4.2,0.9-6.2c0.2-1.3,0.4-2.5,0.6-3.8
			c0.3-1.5,0.5-2.9,0.8-4.4c0.4-2.3,0.7-4.6,1.1-6.9c0.4-2.9,0.8-5.9,1.2-8.8c0-0.3,0-0.6-0.1-0.9c0,0,0,0-0.1-0.1
			c-0.1,0.7-0.2,1.4-0.3,2c-0.3,2.2-0.6,4.3-0.9,6.5c-0.2,1.7-0.4,3.4-0.7,5.1c-0.3,2.1-0.7,4.2-1.1,6.4c-0.4,2.3-0.7,4.6-1.1,6.9
			c-0.3,1.7-0.5,3.3-0.8,5c-0.3,1.9-0.6,3.9-0.8,5.9c-0.4,2.5-0.7,5-1.1,7.4c-0.1,0.5-0.1,1-0.1,1.5c0,0.5-0.2,0.8-0.6,1
			c-1.2,0.6-2.4,1-3.7,1.3c-1.6,0.3-3.1,0.6-4.7,0.9c-1.1,0.2-2.1,0.3-3.2,0.4c-0.1,0-0.3,0-0.3-0.1c-0.2-0.3-0.5-0.4-0.9-0.4
			c-1.1,0-2.1,0-3.2,0c-0.4,0-0.8,0-1.2-0.1c-0.4,0-0.8,0-1.1,0.3c-0.1,0.1-0.2,0.3-0.3,0.5c-0.7-0.1-1.3-0.1-2-0.2
			c-1.7-0.2-3.4-0.2-5-0.5c-1.6-0.2-3.1-0.6-4.7-1c-0.8-0.2-1.6-0.7-2.4-1c-0.4-0.2-0.5-0.5-0.5-0.9c0-0.6,0.1-1.1,0.3-1.7
			c0.2,0.1,0.3,0.2,0.4,0.4c0.7,0.9,1.7,1.4,2.8,1.7c1.3,0.4,2.6,0.7,4,0.8c2.3,0.2,4.6,0.5,7,0.6c2.4,0.1,4.7,0,7.1-0.1
			c2.1-0.1,4.2-0.3,6.3-0.7c0.8-0.2,1.7-0.4,2.5-0.6c1.6-0.5,2.6-1.6,2.8-3.3c0.4-2.2,0.8-4.3,1.1-6.5c0.4-2.8,0.8-5.5,1.2-8.3
			c0.4-2.6,0.8-5.3,1.2-7.9c0.5-3.3,1-6.6,1.5-9.8c0.3-2,0.6-3.9,0.8-5.9c0.1-0.9,0.3-1.9,0.3-2.8c0.1-2-0.7-3.5-2.3-4.6
			c-0.9-0.6-1.8-1-2.9-1.4c-2.5-0.8-5.1-1.1-7.6-1.4c-1.1-0.1-2.3-0.3-3.4-0.4c-3.2-0.2-6.4-0.3-9.6,0c-2.6,0.3-5.2,0.5-7.8,1
			c-2.2,0.4-4.3,0.9-6.4,1.7c-1,0.4-2,1-2.7,1.8c-0.9,1.1-1.5,2.3-1.6,3.7c-0.1,1.3,0.1,2.5,0.2,3.7c0.3,2.3,0.5,4.7,0.8,7
			c0.2,1.5,0.4,3,0.6,4.5c0.1,1.2,0.3,2.3,0.4,3.5c0.3,2.9,0.7,5.8,1,8.7c0.2,2,0.4,4.1,0.7,6.1c0.2,1.9,0.5,3.7,0.7,5.6
			c0.1,0.8,0.2,1.5,0.3,2.3c0.1,0.7-0.4,1.2-0.7,1.7c-0.3-0.8-0.5-1.7-0.9-2.5c-0.3-0.9-0.5-1.8-0.6-2.8c-0.2-1.5-0.4-3-0.5-4.4
			c-0.2-2-0.5-4-0.7-6c-0.2-1.6-0.4-3.3-0.6-4.9c-0.2-1.6-0.3-3.1-0.5-4.7c-0.2-1.9-0.4-3.7-0.7-5.6c-0.3-2.8-0.6-5.7-0.9-8.5
			c-0.2-1.7-0.3-3.3-0.5-5c0-0.2,0-0.4,0-0.6c0,0-0.1,0-0.1,0c0,0.1-0.1,0.2-0.1,0.4c0.1,0.9,0.2,1.7,0.2,2.6
			c0.2,1.8,0.4,3.7,0.6,5.5c0.2,1.9,0.4,3.8,0.6,5.7c0.2,1.9,0.5,3.9,0.7,5.8c0.2,1.7,0.3,3.3,0.5,5c0.2,1.5,0.4,3,0.6,4.5
			c0.1,1,0.2,2.1,0.3,3.1c0.3,2.2,0.6,4.4,0.8,6.5c0.1,0.9,0.2,1.8,0.4,2.6c0.1,0.6,0.4,1.2,0.6,1.8c0.1,0.3,0.2,0.6,0.3,1
			c0,0.1,0,0.3,0,0.4c-0.2-0.2-0.3-0.3-0.5-0.5c-0.2,0.4-0.1,0.5,0.2,0.6c0.1,0,0.2,0.1,0.3,0.2c0.3,0.4,0.4,0.9,0.5,1.5
			c0,0.1,0,0.2,0,0.3c-0.3,0-0.5,0-0.8,0c0,0-0.1-0.1-0.1-0.2c0-0.2,0-0.4,0.1-0.5c0.3-0.2,0.4-0.5,0.2-0.9
			c-0.2,0.1-0.3,0.1-0.6,0.2c-2.1-14.9-3.7-29.9-5.3-44.9c0,0.1-0.1,0.1-0.1,0.1C28.6,26.1,28.7,26,29.4,25.5z M35.7,64.1
			c-0.3-2.4-0.6-4.8-0.9-7.2c-0.2-2-0.4-4-0.7-6c-0.3-2.7-0.7-5.4-1-8.2c-0.3-2.1-0.5-4.3-0.8-6.4c-0.2-1.9-0.5-3.7-0.7-5.6
			c-0.2-1.6-0.1-3.1,0.5-4.6c0.7-1.7,1.9-2.8,3.6-3.4c2.2-0.8,4.5-1.3,6.8-1.7c1.9-0.3,3.7-0.5,5.6-0.7c1.7-0.2,3.4-0.2,5.2-0.3
			c0.5,0,1,0,1.6,0c0,0,0,0,0,0c1.7,0.1,3.4,0.1,5.1,0.3c2.2,0.2,4.5,0.5,6.7,0.9c1.4,0.3,2.7,0.5,4,1.1c0.8,0.3,1.7,0.7,2.4,1.3
			c1.1,1,1.8,2.2,1.8,3.7c0,1-0.1,2-0.2,3c-0.4,2.8-0.8,5.6-1.3,8.3c-0.4,2.9-0.9,5.7-1.4,8.6c-0.3,2.1-0.6,4.1-0.9,6.2
			c-0.4,2.7-0.8,5.5-1.2,8.2c-0.3,1.9-0.6,3.9-1,5.8c-0.1,0.7-0.3,1.4-0.6,2.1c-0.4,1.1-1.3,1.8-2.4,2c-1.2,0.3-2.5,0.6-3.7,0.7
			c-1.8,0.2-3.7,0.4-5.5,0.5c-2.3,0.1-4.6,0.2-6.9,0c-2.1-0.2-4.2-0.3-6.2-0.6c-1.5-0.2-2.9-0.4-4.3-0.9c-1.1-0.4-2.1-1-2.7-2.1
			c-0.1-0.3-0.3-0.5-0.3-0.8C36.1,67,35.9,65.6,35.7,64.1z M30.5,50.1c0.1,0.8,0.1,1.6,0.3,2.4c0.1,0.7,0,1.2-0.6,1.6
			c-0.6,0.5-1.2,1-1.8,1.5c-0.2,0.2-0.4,0.2-0.5-0.1c-0.3-0.5-0.6-1.1-0.9-1.6c-0.4-0.7-0.7-1.4-1-2.1c0.3-0.4,0.5-0.8,0.8-1.3
			c0.1-0.1,0.2-0.1,0.3-0.1c0.8-0.1,1.6-0.1,2.4-0.2C29.8,50.2,30.1,50.1,30.5,50.1z M29.7,47.5c-0.1-1.4-0.3-2.8-0.3-4.2
			c-0.1-1.9-0.1-3.8-0.1-5.7c0-0.6-0.1-1.2-0.1-1.8c0.3,4.4,0.6,8.7,0.9,13.1c0,0-0.1,0-0.1,0C29.9,48.5,29.8,48,29.7,47.5z
			 M28.5,35.2c-0.2,1.1,0,2,0.1,3c0.1,2,0.3,4.1,0.4,6.1c0.1,1.1,0.2,2.2,0.3,3.3c0,0.5,0.1,1,0.1,1.5c-0.2,0-0.4,0-0.6,0.1
			c-0.1-0.6-0.1-1.3-0.2-1.9c-0.2-2.2-0.4-4.3-0.6-6.5c-0.1-1.6-0.2-3.2-0.2-4.8c0-0.2-0.1-0.4-0.1-0.7C28,35.4,28.2,35.3,28.5,35.2
			z M26.7,35.8c0.2-0.1,0.5-0.2,0.8-0.3c0,0.5,0,1,0,1.5c0.2,2.7,0.3,5.4,0.5,8c0.1,1.3,0.2,2.6,0.3,4c0,0.2,0,0.2-0.2,0.2
			c-0.4,0.1-0.5,0.1-0.5-0.4c-0.1-1.4-0.2-2.8-0.4-4.2c-0.2-2.6-0.5-5.2-0.7-7.8c0-0.3,0-0.6-0.1-0.9C26.4,36,26.5,35.9,26.7,35.8z
			 M25.5,36.7c0-0.1,0-0.2,0-0.3c0-0.5,0.1-0.6,0.5-0.6c0,0.4,0,0.7,0,1.1c0.1,1.5,0.3,3.1,0.4,4.6c0.2,2.2,0.4,4.3,0.5,6.5
			c0,0.5,0,0.9,0,1.4c-0.2-0.3-0.3-0.6-0.4-0.9c-0.1-0.9-0.2-1.9-0.3-2.8C26,42.7,25.8,39.7,25.5,36.7z M25.3,49.8
			c0.1-0.3,0.2-0.5,0.5-0.7c0.2,0.4,0.1,0.7-0.2,1.1C25.5,50.1,25.3,49.9,25.3,49.8z M25,50.7c0,0.1,0.1,0.2,0.1,0.3
			c0,0.2-0.1,0.5-0.2,0.7c-0.1,0.1-0.3,0.1-0.5,0.2c0.1-0.4,0.2-0.7,0.3-0.9C24.8,50.8,24.9,50.7,25,50.7z M24.9,47.8
			c-0.1,0.5-0.1,1.1-0.2,1.6c0,0,0,0-0.1,0c0-0.1,0-0.2,0-0.3c0-0.3,0-0.7,0-1C24.5,47.8,24.6,47.7,24.9,47.8z M23,45.4
			c0.3-0.1,0.6-0.1,0.9-0.2c0,0,0,0,0,0.1c-0.3,0.1-0.5,0.2-0.8,0.4c-0.1,0-0.1,0-0.2-0.1C22.9,45.5,23,45.4,23,45.4z M21.8,43.8
			c0.2,0.2,0.5,0.5,0.7,0.7c0.1,0.1,0.1,0.2-0.1,0.3c-0.2,0.1-0.5,0.3-0.7,0.5c0.5,0.4,1,0.7,1.5,1c0.3,0.2,0.5,0.2,0.8,0.1
			c0.1,0,0.4,0,0.4,0.1c0.1,0.1,0,0.3,0,0.4c-0.1,0.2-0.2,0.3-0.4,0.4c-0.1,0-0.3,0-0.4-0.1c-0.4-0.3-0.8-0.6-1.2-0.9
			c-0.5-0.4-0.9-0.7-1.4-1.1c-0.4-0.3-0.4-0.6-0.1-1c0,0,0,0,0.1-0.1C21.4,44.1,21.6,44,21.8,43.8z M9.8,62.7
			c-0.1,0.2,0.1,0.5-0.2,0.7c-0.2,0.1-0.3,0-0.5-0.1c-0.2-0.2-0.4-0.2-0.6-0.3c0,0-0.1-0.1-0.1-0.1c0.4,0,0.8,0,1.1-0.4
			C9.2,62.3,9,62.1,8.9,62c0.3-0.1,0.6-0.3,1.1-0.1c-0.1,0.2-0.2,0.4-0.4,0.6C9.6,62.6,9.8,62.7,9.8,62.7z M9.6,64
			c0,0.3-0.2,0.3-0.3,0.2c-0.3-0.1-0.7-0.3-0.9-0.4c0.3-0.1,0.6-0.2,0.9-0.3c0.2,0,0.3,0,0.5-0.1C9.6,63.7,9.6,63.9,9.6,64z
			 M11.9,87.6c-0.4-0.1-0.8-0.2-1.3-0.3c0,0,0,0,0-0.1c0.4,0,0.9,0,1.3,0c0.1,0,0.2,0.1,0.2,0.2C12.1,87.5,12,87.6,11.9,87.6z
			 M12.7,88.3c-0.3,0-0.7,0-1,0c-0.1,0-0.1-0.1-0.2-0.1c0.1-0.1,0.1-0.1,0.2-0.2C12,87.8,12.4,87.9,12.7,88.3z M10.4,86.2
			c0.4-0.3,1.1-0.1,1.2,0.3C11.2,86.8,10.7,86.6,10.4,86.2z M10.8,85.7c-0.2,0-0.4-0.1-0.6-0.1c-0.2,0-0.3-0.1-0.5-0.1
			c0.3-0.2,0.7-0.3,1-0.2c0.1,0,0.1,0,0.2,0.1c0.1,0.1,0.2,0.2,0.2,0.3C11,85.6,10.9,85.7,10.8,85.7z M9.5,84.6
			c0.5-0.3,1-0.2,1.2,0.3C10.3,84.8,9.9,84.8,9.5,84.6z M10.1,83.9c-0.4,0-0.7-0.2-1.1-0.4c0.4,0,0.7,0.1,1.1,0.1
			c0.1,0,0.2,0.1,0.3,0.2C10.3,83.8,10.2,83.9,10.1,83.9z M9,82.8c0.5-0.1,1,0,1.2,0.3C9.8,83.1,9.4,83.1,9,82.8z M8.5,82
			c0.4-0.3,0.7-0.3,1.1-0.3c0.1,0,0.1,0.1,0.1,0.1c0,0.2,0.1,0.3,0.1,0.6C9.4,82.2,9,82.1,8.5,82z M9.4,81.2c-0.4,0.1-0.7-0.1-1-0.3
			c0,0,0,0,0-0.1c0.3,0,0.7,0,1,0c0.1,0,0.1,0.2,0.2,0.2C9.6,81.1,9.5,81.2,9.4,81.2z M7.2,59.4c-0.4,0.2-0.1,0.5-0.2,0.8
			c0,0.1-0.1,0.2-0.2,0.3c-0.1-0.1-0.3-0.1-0.3-0.2c0-0.1,0-0.3,0-0.4c0.1-0.5,0.3-1,0.4-1.5c0.1-0.3,0.1-0.3,0.4-0.2
			c-0.2,0.4-0.3,0.7-0.5,1.1C7.1,59.3,7.1,59.3,7.2,59.4z M7.5,54.4c0.3,0,0.6,0,1,0c0.2,0,0.2,0.1,0.2,0.3c0,0.9,0,0.9-0.9,0.9
			c-0.2,0-0.4,0-0.6,0c-0.2,0-0.2-0.1-0.2-0.3c0-0.1,0-0.3,0-0.4C7,54.4,7,54.4,7.5,54.4z M7.3,53.8c0.1-0.2,0.1-0.3,0.1-0.5
			c0-0.1,0.1-0.1,0.1-0.1c0.4-0.1,0.7-0.1,1.2-0.1c0,0.4-0.1,0.6-0.1,0.9c0,0.1-0.1,0.2-0.2,0.2c-0.3,0-0.6,0-1,0
			C7.4,54.1,7.3,54,7.3,53.8z M7.3,56C7.6,56,7.8,55.9,8,55.9c0.1,0,0.2,0,0.2,0c0.2,0,0.4,0,0.6,0.1c0,0.3-0.1,0.6-0.1,0.9
			c0,0.1-0.2,0.1-0.2,0.1c-0.4,0-0.8,0-1.2-0.1c-0.2,0-0.4-0.1-0.4-0.3C6.9,56.3,7.1,56.1,7.3,56z M9.4,65.6
			c-0.3-0.1-0.6-0.2-0.9-0.3c0,0,0-0.1,0-0.1c0.3,0,0.6-0.1,0.8-0.1C9.5,65.2,9.3,65.4,9.4,65.6z M8.7,73.6
			C8.7,73.6,8.7,73.6,8.7,73.6L8.7,73.6z M8.7,73.2c0,0.1-0.2,0.1-0.2,0.1c-0.2-0.1-0.4-0.2-0.7-0.3C8,72.9,8.5,72.8,8.6,73
			C8.7,73,8.7,73.2,8.7,73.2z M8.6,72.9c-0.2,0-0.4,0-0.6-0.1c0,0,0-0.1,0-0.1c0.2-0.1,0.4-0.2,0.7-0.2c0,0,0.1,0.1,0.1,0.1
			C8.7,72.7,8.6,72.9,8.6,72.9z M8.5,72.2c-0.3,0-0.6-0.1-0.9-0.2c0,0,0,0,0-0.1c0.2-0.1,0.5-0.2,0.7-0.2c0.1,0,0.2-0.1,0.3,0
			c0.1,0,0.2,0.2,0.2,0.2C8.7,72,8.6,72.2,8.5,72.2z M8.7,73.6c0.1,0.5,0.1,0.6-0.5,0.6c-0.3,0-0.5,0-0.7-0.1
			C7.9,73.9,8.3,73.8,8.7,73.6z M8.9,74.9c-0.4,0-0.7,0-1.1-0.3C8.2,74.4,8.8,74.5,8.9,74.9z M8.3,71.3c-0.1,0-0.3-0.1-0.4-0.2
			C7.9,71.1,8,71,8,70.9c-0.2-0.1-0.3-0.1-0.5-0.2c0.4,0,0.8,0.1,1.2,0.1c0,0,0,0,0,0C8.9,71.5,8.9,71.5,8.3,71.3z M8.8,70.6
			c-0.2,0-0.3,0-0.5-0.1c0,0-0.1-0.1-0.1-0.2c0-0.1,0.1-0.2,0.1-0.2c0.2,0,0.3,0,0.6-0.1C8.9,70.3,8.9,70.6,8.8,70.6z M8.9,69.7
			C8.7,70,8,70,7.7,69.8c0,0,0,0,0-0.1c0.3-0.1,0.6-0.2,0.9-0.3c0,0,0-0.1,0-0.1c-0.1-0.1-0.2-0.1-0.3-0.2c0.1-0.1,0.2-0.1,0.3-0.2
			c-0.3-0.1-0.5-0.3-0.8-0.4c0,0,0,0,0-0.1c0.4,0,0.7,0,1.1,0c0.1,0.2,0.1,0.4-0.2,0.5C8.9,69,8.9,69.1,9,69.1c0,0-0.1,0-0.1,0
			c0,0.1,0.1,0.2,0.1,0.2C9,69.5,9,69.6,8.9,69.7z M9.1,78.6c-0.3-0.1-0.6-0.3-0.9-0.4C8.6,77.9,9,78,9.1,78.6z M9,67.9
			c-0.6,0.1-0.9-0.4-1.4-0.4c0,0,0-0.1,0-0.1c0.4,0.1,0.8,0.1,1.1,0.2C8.9,67.6,9,67.7,9,67.9C9.1,67.9,9,67.9,9,67.9z M8.4,66.9
			c0.3-0.3,0.6-0.1,0.9-0.1c0,0.2,0,0.3,0,0.4C8.9,67.2,8.6,67.1,8.4,66.9z M9.1,66.2c-0.3-0.1-0.6-0.1-0.9-0.2c0,0,0,0,0-0.1
			c0.3,0,0.6-0.1,0.9-0.1c0.1,0,0.2,0.1,0.2,0.1C9.3,66.2,9.2,66.2,9.1,66.2z M8.1,64.6C8.1,64.6,8.1,64.6,8.1,64.6c0.5,0,1,0,1.5,0
			c0,0.1-0.1,0.2-0.1,0.4C9,64.9,8.5,64.7,8.1,64.6z M7.3,75.2c0.5,0,1,0.1,1.5,0.1c0,0.1,0,0.2,0,0.3c0,0.4-0.1,0.5-0.5,0.4
			c-0.2,0-0.3-0.1-0.5-0.2c0.1-0.1,0.1-0.2,0.2-0.3C7.8,75.4,7.5,75.3,7.3,75.2C7.3,75.2,7.3,75.2,7.3,75.2z M8.2,76.6
			c0-0.1-0.1-0.1-0.1-0.2c0.3,0,0.5,0,0.7,0c0,0.2,0,0.3,0,0.5c-0.3,0.2-0.4,0.2-1.3-0.3C7.8,76.6,8,76.6,8.2,76.6z M8.7,77.4
			c0.1,0,0.2,0.1,0.3,0.1c-0.1,0.1-0.1,0.2-0.2,0.3c-0.3,0.2-0.6,0-0.9-0.3C8.2,77.4,8.4,77.4,8.7,77.4z M8,78.7
			c0.3,0,0.6,0,0.9,0.1c0.1,0,0.2,0.2,0.2,0.3c0,0.1-0.1,0.2-0.2,0.2c-0.2,0-0.3,0-0.4-0.1C8.3,79,8.2,78.9,8,78.8
			C8,78.8,8,78.7,8,78.7z M9.3,80c0.1,0,0.1,0.2,0.2,0.4c-0.5,0-0.8-0.1-1.2-0.4C8.6,79.8,9,79.9,9.3,80z M9.9,61.6
			c0,0.1-0.2,0.1-0.3,0.1c-0.1,0-0.2-0.1-0.3-0.1c0,0,0,0,0,0c-0.1-0.1-0.2-0.3-0.3-0.5C9.3,61,9.5,61,9.8,61c0.1,0,0.2,0.1,0.2,0.1
			C10,61.3,10,61.4,9.9,61.6z M10,60.8c-0.2,0-0.4,0-0.6-0.1c0,0,0-0.1,0-0.1c0.1,0,0.1-0.1,0.2-0.1c0,0-0.1-0.1-0.1-0.1
			c0,0,0.1,0,0.1,0c0.2,0,0.3,0,0.5,0c0.1,0,0.1,0.1,0.2,0.1C10.1,60.6,10,60.8,10,60.8z M9.9,60c-0.3,0-0.6-0.2-0.7-0.4
			c0.1-0.1,0.2-0.2,0.3-0.3c0,0-0.1-0.1-0.1-0.2c0.3-0.1,0.6-0.1,0.9-0.2c0,0.3,0,0.6-0.1,0.9C10.2,59.9,10,60,9.9,60z M10.2,58.8
			c0,0-0.2,0.1-0.3,0.1c-0.3-0.1-0.5-0.2-0.8-0.2c0.3-0.1,0.6-0.2,0.8-0.3c0,0,0-0.1,0-0.1C9.8,58.1,9.6,58,9.5,58
			c0.2,0,0.5,0,0.8,0c0,0,0,0,0,0C10.3,58.3,10.3,58.5,10.2,58.8z M9.1,57c-0.1,0-0.2,0-0.2-0.1c0-0.3,0.1-0.5,0.1-0.7
			c0-0.2,0.1-0.3,0.3-0.3c0.7,0,1.4,0.1,2,0.1c0.2,0,0.3,0.1,0.3,0.3c0,0.7-0.1,0.8-0.8,0.8C10.3,57.1,9.7,57,9.1,57z M11.1,55.6
			c-0.4,0-0.9,0-1.3,0c-0.2,0-0.4-0.1-0.6-0.2c0,0,0-0.1,0-0.1c-0.1,0-0.2,0.1-0.3,0.1c0-0.3,0-0.6,0-0.9c0.8-0.2,1.5-0.1,2.3-0.1
			c0.5,0,0.5,0,0.5,0.5C11.8,55.6,11.8,55.6,11.1,55.6z M11.5,53.6c-0.3,0-0.6,0-0.9,0c-0.1,0-0.2,0-0.3,0c0,0,0,0,0,0.1
			c0.4,0,0.8,0.1,1.1,0.1c0.1,0,0.2,0.1,0.3,0.1c0,0.1-0.1,0.3-0.1,0.3c-0.7,0-1.4,0-2.1-0.1c0,0-0.1,0-0.1,0c0-0.2,0-0.4,0-0.6
			c0-0.1,0.1-0.2,0.1-0.2c0.7,0,1.5,0.1,2.2,0.1c0,0,0,0,0.1,0C11.8,53.5,11.7,53.6,11.5,53.6z M9.6,52.5
			C9.6,52.5,9.6,52.5,9.6,52.5c-0.7,0-1.4,0-2,0c-0.1,0-0.3,0-0.2-0.2c0-0.1,0-0.4,0.2-0.4C9,52,10.5,52,12,52.1
			c0.1,0,0.3,0,0.3,0.2c0,0.2-0.1,0.2-0.3,0.2C11.2,52.5,10.4,52.5,9.6,52.5z M8,50.7c0.4,0,0.8,0,1.1,0c0.9,0,1.8,0,2.8,0
			c0.2,0,0.3,0,0.3,0.2c0,0.2-0.2,0.2-0.3,0.2c-1.2,0-2.4-0.1-3.7-0.1C8,51.1,7.9,51,8,50.7z M12.2,50.5c0.1-0.5,0.2-0.9,0.3-1.3
			c0.4-1.7,0.8-3.4,1.3-5c0.4-1.5,1-2.9,2-4.1c0.7-0.9,1.6-1.6,2.7-1.9c0.9-0.2,1-0.2,1.1,0.8c0.1,1.3,0.2,2.6,0.3,4
			c0.1,0.7,0.1,1.4,0.1,2.2c0,0.5,0.2,0.8,0.7,1.1c0.5,0.3,0.9,0.4,1.4,0.6c0.1,0,0.2,0.1,0.3,0.2c-0.1,0.1-0.2,0.2-0.3,0.4
			c-0.1-0.1-0.2-0.1-0.2-0.2c-0.1,0-0.2,0-0.3,0c-0.2,0.2-0.3,0.1-0.4,0c-0.5-0.4-1.1-0.9-1.6-1.3c-0.1-0.1-0.1-0.2-0.1-0.3
			c-0.1-1.1-0.2-2.1-0.3-3.2c-0.1-1.1-0.3-2.1-0.4-3.2c0-0.1,0-0.1-0.1-0.3c-0.3,0.2-0.6,0.3-0.9,0.5c-1.9,1.3-3.1,3.2-3.7,5.4
			c-0.5,1.6-0.9,3.3-1.3,4.9c-0.1,0.2-0.1,0.4-0.2,0.6C12.6,50.5,12.5,50.5,12.2,50.5z M21.9,50c-0.1-0.1-0.1-0.6,0-0.7
			c0,0,0.1,0,0.2,0c0.6,0.2,1.1,0.4,1.7,0.6c0.2,0.1,0.2,0.2,0.1,0.3c-0.1,0.2-0.2,0.4-0.3,0.6C23,50.6,22.4,50.4,21.9,50z
			 M23.6,51.3c0,0.4-0.1,0.4-0.5,0.3c-0.4-0.2-0.9-0.4-1.3-0.6c-0.2-0.1-0.3-0.2-0.4-0.4c0-0.1,0-0.2,0-0.3c0,0,0.2,0,0.3,0
			c0.5,0.2,0.9,0.4,1.4,0.6c0.2,0.1,0.3,0.1,0.5,0.2C23.6,51.2,23.6,51.3,23.6,51.3z M23.8,49.3c-0.1-0.5-0.1-1-0.2-1.5
			c0.3,0.5,0.3,0.9,0.3,1.4C23.9,49.3,23.9,49.3,23.8,49.3z M23.7,49.3c-0.4-0.1-0.7-0.2-1.1-0.4c-0.6-0.2-0.5-0.2-0.3-0.8
			c0.1-0.2,0.1-0.3,0.2-0.5c0-0.2,0-0.3,0-0.5C23.5,47.5,23.4,48.4,23.7,49.3z M17.5,49.4c0.2,0.1,0.3,0.2,0.3,0.4
			c0,0.3,0.1,0.4,0.6,0.9c-0.6,0.4-1.1,0.8-1.8,0.8c-0.2,0-0.4-0.1-0.6-0.1c-0.3-0.1-0.4-0.3-0.4-0.6c-0.1-1.9,0.1-3.7,0.6-5.5
			c0.2-0.7,0.4-1.4,0.7-2c0.1-0.2,0.3-0.4,0.5-0.6c0.3-0.2,0.6-0.4,1-0.7c0.1,1,0.2,1.9,0.3,2.8c0,0,0,0.1,0,0.1
			c0.1,0.3,0,0.6-0.3,0.8c-0.7,0.7-1.2,1.5-1.4,2.4C16.8,48.8,17,49.1,17.5,49.4z M18.1,48.8c0,0-0.2,0-0.2-0.1
			c-0.2-0.2-0.2-0.7,0-0.9c0.1-0.1,0.4-0.2,0.4-0.1c0.1,0.1,0.2,0.3,0.4,0.6C18.5,48.5,18.3,48.7,18.1,48.8z M14.6,52.7
			C14.7,52.7,14.7,52.7,14.6,52.7c0.9,0.5,1.8,0.6,2.7,0.6c1,0,1.8-0.6,2.6-1.1c0.2,0.2,0.2,0.4,0,0.5c-1.1,1-2.5,1.5-4,1.3
			c-0.9-0.2-1.8-0.5-2.4-1.2c-0.1-0.1-0.2-0.2-0.2-0.4c0.8,0.4,1.5,0.9,2.3,1.3c0,0,0-0.1,0.1-0.1C15.4,53.4,15,53,14.6,52.7z
			 M19.5,51.7c-0.7,0.5-1.4,0.9-2.2,1.1c-0.9,0.1-1.7,0-2.4-0.3c-0.4-0.1-0.8-0.3-1-0.6c-0.1-0.1-0.1-0.2-0.1-0.3
			c0.2-0.9,0.4-1.8,0.5-2.7c0.3-1.6,0.4-3.2,1-4.8c0.2-0.6,0.6-1.2,0.9-1.8c0,0,0.1,0,0.1,0c-0.3,0.8-0.5,1.5-0.8,2.3
			c-0.6,2.1-0.9,4.2-0.7,6.4c0.1,0.8,0.4,1.1,1.2,1.2c1.3,0.2,2.8-0.6,3.4-1.7c0.2-0.3,0.4-0.6,0.6-0.9c0.1-0.1,0.2-0.2,0.3,0
			c0.1,0.1,0.2,0.3,0.3,0.4c0,0,0,0.2-0.1,0.2c-0.1,0.2-0.3,0.4-0.4,0.6C20.1,51.2,19.8,51.5,19.5,51.7z M20.6,48.3
			c-0.2,0.1-0.2,0.2-0.2,0.4c0,0.1,0,0.2,0,0.3c0,0.2-0.1,0.3-0.4,0.2c-0.3-0.1-0.5,0-0.7,0.3c-0.1,0.1-0.1,0.2-0.2,0.3
			c-0.2-0.2-0.2-0.7,0-0.8c0.1-0.1,0.1-0.1,0.2-0.1c0.1-0.1,0.4-0.3,0.4-0.5c0-0.1-0.2-0.3-0.3-0.5c-0.2-0.3-0.1-0.9,0.1-1.1
			c0.1-0.1,0.2-0.1,0.3,0c0.3,0.3,0.7,0.6,1,0.9C20.9,48,20.8,48.2,20.6,48.3z M21,51c0,0,0.1,0,0.1,0.1c0.5,0.5,1.2,0.8,1.8,1.1
			c0.3,0.1,0.6,0.3,0.9,0.5c0.1,0.1,0.2,0.2,0.3,0.3c0,0.2,0,0.4,0,0.6c-0.2,0-0.3-0.1-0.5-0.1c-0.9-0.5-1.8-1-2.6-1.5
			c-0.1-0.1-0.2-0.2-0.3-0.2C20.8,51.4,20.9,51.2,21,51z M20.2,31.2c0.1,0.4,0.2,0.8,0.2,1.2c0.1,1.6,0.1,3.1,0.2,4.7
			c0.1,2.1,0.3,4.2,0.5,6.3c0,0.1,0,0.2,0.1,0.3c-0.2,0.1-0.3,0.2-0.5,0.3c0-0.6-0.1-1.1-0.1-1.7c-0.1-1.4-0.3-2.8-0.5-4.2
			c-0.1-0.8,0-0.8-0.9-0.7c-1.4,0.1-2.7,0.6-3.7,1.7c-1,1-1.5,2.2-2.1,3.5c-0.9,2.3-1.5,4.6-1.9,7c0,0.2,0,0.4-0.1,0.6
			c0,0.1-0.1,0.2-0.2,0.2c-0.7,0-1.5,0-2.2,0c0.1-0.5,0.2-1,0.3-1.5c0.5-2.5,1-5.1,1.5-7.6c0.5-2.5,1.2-5,1.7-7.6
			c0.2-0.8,0.4-1.7,0.7-2.5c0.1-0.3,0.2-0.4,0.5-0.4c1.2,0,2.4,0,3.6,0c0.7,0,1.4,0,2.1,0C19.9,30.7,20.1,30.9,20.2,31.2z
			 M19.8,30.4c-2.1,0-4.2,0.1-6.3,0.1c0-0.2,0-0.4,0.1-0.6c0-0.1,0.2-0.1,0.3-0.1c1.1,0,2.2,0,3.3-0.1c0.6,0,1.3,0,1.9,0
			C19.6,29.6,19.7,29.7,19.8,30.4z M26.9,8.8c-2.2,0.4-4.3,1.2-5.8,2.9c-1.1,1.2-1.7,2.6-2.2,4.1c-0.4,1.2-0.6,2.5-0.9,3.8
			c0,0.1-0.1,0.2-0.2,0.3c0,0-0.1,0-0.1,0c0.1-0.9,0.3-1.7,0.4-2.6c0.2-1.2,0.5-2.4,1-3.6c0.8-2,2.1-3.5,4.1-4.3
			c1.2-0.5,2.4-0.9,3.7-0.9c0.2,0,0.3,0,0.3,0.3C27.1,8.8,27,8.8,26.9,8.8z M15.3,18.8c0.3-1.2,0.5-2.5,0.8-3.7c0.5-3,2-5.4,4.6-7.1
			C22.2,6.9,24,6.1,26,5.8c0.4-0.1,0.9-0.1,1.4-0.1c0,0.4,0,0.8,0,1.2c0,0.3-0.1,0.4-0.4,0.4c-1.8,0.2-3.5,0.6-5.1,1.5
			c-2.2,1.2-3.5,3.1-4.1,5.4c-0.5,1.8-0.7,3.6-0.9,5.4c0,0.1,0,0.3-0.1,0.4c-0.6,0-1.2,0-1.8,0C15.1,19.5,15.2,19.2,15.3,18.8z
			 M13.4,20.8c0-0.1,0.1-0.1,0.2-0.1c1.2,0,2.4,0,3.6,0c0.4,0,0.7,0,1.1,0c0.2,0,0.2,0.1,0.2,0.2c0,0,0,0,0,0
			c0.1,0.7,0.1,0.7-0.6,0.7c-1.3,0-2.6,0-4,0c-0.2,0-0.4,0-0.7,0C13.4,21.4,13.4,21.1,13.4,20.8z M18,26.6c0-1,0.1-1.9,0.1-2.8
			c0,0,0,0,0.1,0c0,0.1,0.1,0.2,0.1,0.3c0,0.8,0.1,1.6,0.1,2.3C18.3,26.6,18.3,26.7,18,26.6z M14.3,22.6c-0.2,0-0.4,0-0.4-0.2
			c0,0,0.3-0.2,0.4-0.2c1.2,0,2.3,0,3.5,0c0,0.3,0,0.4-0.3,0.4C16.4,22.6,15.3,22.6,14.3,22.6z M17.1,23.4c0,0.7,0,1.5-0.1,2.2
			c0,0.3,0,0.6-0.1,0.9c-0.1,0-0.2,0-0.4,0c0-1.2,0-2.4,0-3.6C17.2,23,17.2,23,17.1,23.4z M16.1,23.3c0,1,0,2-0.1,3
			c0,0.1,0,0.2,0,0.4c-0.2,0-0.4,0-0.6,0c0-0.2,0-0.3,0-0.4c0-1,0.1-1.9,0.1-2.9c0-0.3,0.1-0.3,0.4-0.3C16.1,23,16.1,23.1,16.1,23.3
			z M14.9,23.2c0,1.1,0,2.2,0,3.3c-0.2,0-0.3,0-0.4,0c0-0.1,0-0.1,0-0.2c0-1.1,0.1-2.1,0.1-3.2c0-0.1,0.1-0.1,0.2-0.2
			C14.8,23,14.9,23.2,14.9,23.2z M13.9,23.6c0,0.9-0.1,1.8-0.1,2.7c0,0.1,0,0.3-0.2,0.3c-0.1,0-0.1-0.2-0.1-0.3
			c0.1-0.8,0.1-1.7,0.2-2.5c0-0.2,0.1-0.3,0.1-0.5c0,0,0.1,0,0.1,0C13.9,23.4,13.9,23.5,13.9,23.6z M12.8,27.6c0-0.2,0-0.4,0.3-0.4
			c1.4,0,2.7-0.1,4.1-0.1c0.4,0,0.9,0,1.3,0c0.2,0,0.4,0.3,0.4,0.5c0,0.1-0.2,0.1-0.3,0.1c-0.9,0-1.8,0-2.8,0c0,0,0,0,0,0
			c-0.9,0-1.8,0-2.8,0C12.9,27.8,12.8,27.8,12.8,27.6z M12.3,28.8c0-0.2,0-0.4,0.3-0.4c2.1,0,4.2,0,6.3,0c0.2,0,0.3,0.1,0.3,0.2
			c0,0.1,0,0.2,0,0.4c-1.4,0-2.7,0-4,0c-0.9,0-1.8,0-2.6,0C12.4,29,12.3,29,12.3,28.8z M11.7,31c0-0.2,0.1-0.4,0.1-0.5
			c0.1-0.2,0.2-0.3,0.4-0.4c0.2-0.1,0.5-0.2,0.7-0.2c0.2,0,0.3,0,0.2,0.3c-0.4,1.6-0.9,3.1-1.3,4.7c-0.5,2.1-0.9,4.2-1.4,6.2
			c-0.6,2.9-1.2,5.9-1.8,8.8c-0.1,0.5-0.1,0.5-0.7,0.4c0.4-1.9,0.7-3.8,1.1-5.7c0.3-1.8,0.7-3.6,1-5.4C10.6,36.5,11.2,33.7,11.7,31z
			 M6.3,50.4c0.4-3.2,0.7-6.4,1.1-9.5c0,0,0,0,0,0C7,44,6.6,47.1,6.2,50.3c0,0,0,0-0.1,0c0-0.1,0-0.1,0-0.2c0.1-1.4,0.3-2.8,0.5-4.1
			c0.4-2.9,0.9-5.7,1.3-8.6c0.2-1.3,0.5-2.5,0.8-3.8c0.2-1,0.8-1.7,1.7-2.2c0.2-0.1,0.5-0.3,0.8-0.4c-0.1,0.7-0.2,1.4-0.3,2
			c-0.6,3-1.2,6-1.8,9c-0.4,2.2-0.9,4.4-1.3,6.6c-0.1,0.5-0.2,1.1-0.3,1.6c0,0.1-0.1,0.2-0.2,0.2C6.9,50.4,6.7,50.4,6.3,50.4z
			 M5.4,68C5.6,67,5.7,66,5.8,65c0.2-1.3,0.4-2.7,0.6-4c0,0,0.1,0,0.1,0c0,0.2,0.1,0.4,0.1,0.7c0,0.1,0,0.2,0,0.2
			c-0.3,0.2-0.2,0.4-0.2,0.7c0,0.2,0.2,0.5-0.2,0.6c0,0-0.1,0.2-0.1,0.2c0,0.5,0,1.1,0,1.6c0,0.2-0.1,0.4-0.2,0.5
			c-0.2,0.4-0.2,0.8,0.1,1.2c-0.3,0-0.4,0.2-0.3,0.5c0,0.1,0,0.1,0,0.2C6,67.8,6,67.8,5.6,68c0.1,0.4,0.6,0.7,0,1.1
			C5.2,68.8,5.4,68.5,5.4,68z M5.3,69.1c0.1,0,0.2,0,0.3,0.1c0.1,0.4,0.1,0.7,0.2,1.1c-0.3,0.1-0.5-0.1-0.5-0.3
			C5.2,69.7,5.3,69.4,5.3,69.1z M5.1,73.5c0-0.6,0.1-1.3,0.1-1.9c0-0.2,0-0.5,0-0.7c0-0.1,0-0.3,0-0.4c0,0,0.1,0,0.1,0
			c0.1,0.3,0.3,0.5,0.5,0.8c-0.2,0.1-0.3,0.2-0.4,0.2c0.1,0.3,0.1,0.5,0.2,0.8c0,0.4,0,0.8,0,1.3c0,0.1,0.1,0.3-0.1,0.3
			C5.3,73.8,5.1,73.7,5.1,73.5z M5.1,74.4c0-0.1,0-0.3,0.1-0.4c0.3,0.2,0.4,0.5,0.4,0.8C5.2,74.9,5.1,74.8,5.1,74.4z M5.4,77.8
			c-0.1-0.9-0.1-1.7-0.2-2.6c0-0.1,0-0.2,0-0.3c0,0,0.1,0,0.1,0c0.2,0.3,0.3,0.6,0.5,0.9C5.7,75.9,5.5,76,5.4,76
			c0.1,0.3,0.3,0.6,0.4,0.9c-0.1,0-0.2,0-0.3,0.1c0.1,0.3,0.2,0.7,0.3,1c0,0.1,0,0.2,0,0.3c0,0-0.2,0.1-0.2,0
			c-0.1-0.1-0.1-0.2-0.2-0.3C5.4,78,5.4,77.9,5.4,77.8z M5.5,78.6c0,0,0.1,0,0.1,0c0.2,0.2,0.3,0.5,0.3,0.8c0,0.1-0.1,0.3-0.1,0.5
			c0,0-0.1,0-0.1,0C5.6,79.4,5.5,79,5.5,78.6z M12,92.1c-0.8-0.8-1.7-1.5-2.4-2.4c-0.9-1.1-1.6-2.3-2.2-3.6
			c-0.2-0.4-0.2-0.9-0.5-1.3c-0.3-0.5-0.3-1-0.5-1.4c-0.2-0.4-0.2-0.8-0.3-1.2C6,81.6,5.9,81,5.8,80.4c0-0.1,0-0.2,0-0.4
			c0,0,0.1,0,0.1,0C6,80.1,6,80.2,6,80.4c0.1,0.4,0.2,0.7,0.3,1.1c0,0.2,0.3,0.4,0,0.6c0,0,0,0.1,0,0.2c0.1,0.3,0.2,0.5,0.3,0.8
			c0.1,0.4,0.2,0.7,0.4,1.1c0.1,0.3,0.2,0.6,0.3,0.9c0.1,0.2,0.2,0.4,0.3,0.5c0,0-0.2,0-0.2,0.1c0,0.1,0,0.2,0.1,0.2
			c0.2,0.5,0.5,0.9,0.7,1.4c0.4,0.7,0.7,1.4,1.2,2c0.6,0.8,1.3,1.5,1.9,2.2C11.5,91.6,11.8,91.9,12,92.1C12,92.1,12,92.1,12,92.1z
			 M12,88.7c0.3-0.2,0.6-0.1,1,0C12.6,88.9,12.2,88.9,12,88.7z M12.3,89.3c0.4-0.3,1.2-0.3,1.4,0.2C13.4,89.6,12.6,89.5,12.3,89.3z
			 M13.4,90.1c0.4-0.3,1-0.3,1.5,0.1C14.4,90.4,13.9,90.6,13.4,90.1z M14.4,91.1c0.5-0.5,0.9-0.5,1.3-0.1
			C15.3,91.4,14.7,91.4,14.4,91.1z M15.5,91.9c0.3-0.3,0.6-0.7,1.2-0.4C16.2,92.1,15.9,92.2,15.5,91.9z M20.6,97.3
			c-2.1,0.1-4.2,0.1-6.3,0.2c-3.2,0.1-6.4,0.2-9.5,0c-0.9,0-1.9-0.1-2.8-0.2c-0.1,0-0.1,0-0.2,0c0,0,0-0.1,0-0.1
			C3.4,97,5,96.8,6.6,96.7c3.3-0.1,6.6-0.2,9.9-0.3c0.7,0,1.4,0,2.1,0.3c0.3,0.1,0.7,0.2,1,0.2c0.7,0.1,1.3,0.2,1.9,0.3
			C21.3,97.3,20.9,97.3,20.6,97.3z M17.1,92.6c-0.1,0-0.2-0.1-0.4-0.1c0-0.1,0.1-0.2,0.1-0.3c0.3-0.4,0.7-0.4,1.1-0.1
			C17.6,92.3,17.4,92.5,17.1,92.6z M18.1,92.9c0.2-0.3,0.5-0.5,0.9-0.4c0,0,0.1,0,0.1,0.1c-0.2,0.3-0.5,0.6-0.8,0.7
			c-0.1,0-0.3-0.1-0.4-0.1C18,93.1,18,93,18.1,92.9z M19.3,93.6c0.2-0.3,0.3-0.5,0.5-0.7c0.1-0.1,0.4-0.1,0.6-0.1c0,0,0,0.1,0.1,0.1
			c-0.3,0.3-0.5,0.6-0.8,0.9c0,0-0.2,0-0.3,0C19.2,93.8,19.2,93.7,19.3,93.6z M20.4,94.2c0.1-0.7,0.8-1.2,1.3-1
			c-0.3,0.3-0.6,0.7-0.9,1C20.7,94.3,20.5,94.2,20.4,94.2z M22.9,93.7c-0.3,0.4-0.7,0.8-1.1,1.2c-0.1-0.1-0.2-0.1-0.3-0.2
			c0.2-0.4,0.5-0.7,0.7-1.1c0.1-0.2,0.3-0.2,0.5-0.2C23,93.4,23.1,93.5,22.9,93.7z M24,94.4c-0.1,0.2-0.2,0.3-0.2,0.5
			c-0.1,0.3-0.1,0.3-0.6,0.2c0.2-0.5,0.4-1,0.6-1.4c0-0.1,0.3-0.1,0.6-0.1C24.3,93.9,24.1,94.1,24,94.4z M24.5,95.3
			c0.1-0.4,0.2-0.8,0.4-1.2c0.1-0.3,0.3-0.4,0.8-0.4c-0.3,0.6-0.6,1.2-1,1.7C24.6,95.3,24.6,95.3,24.5,95.3z M25.8,95.5
			c0,0-0.1,0-0.1-0.1c0.2-0.5,0.3-1,0.5-1.5c0.1-0.2,0.1-0.2,0.7-0.1C26.4,94.4,26.4,95.1,25.8,95.5z M27.6,94.9
			c0,0.1-0.1,0.2-0.1,0.3c0,0.2-0.2,0.3-0.5,0.3c0.1-0.5,0.2-1.1,0.4-1.6c0-0.1,0.3-0.1,0.4-0.2c0,0,0.1,0.1,0.1,0.1
			C27.8,94.1,27.7,94.5,27.6,94.9z M28.6,95.3c0,0.1-0.1,0.1-0.2,0.1c0-0.5,0.1-0.9,0.1-1.3c0-0.3,0.1-0.4,0.4-0.4
			c0.1,0,0.2,0,0.4,0C29,94.3,28.8,94.8,28.6,95.3z M30,95.1c-0.1,0.1-0.2,0.2-0.4,0.3c0,0,0,0-0.1,0c0.1-0.5,0.1-1,0.2-1.5
			c0.1-0.3,0.2-0.3,0.7-0.2C30.3,94.2,30.2,94.6,30,95.1z M31.4,95c-0.2,0.1-0.4,0.2-0.6,0.2c0.1-0.5,0.1-1,0.2-1.6
			c0-0.1,0.3-0.1,0.5-0.2c0,0,0,0.1,0.1,0.1C31.5,94.1,31.4,94.6,31.4,95z M31.4,92.7c-2.1,0.2-4.2,0.3-6.3,0.1
			c-1.3-0.1-2.6-0.2-3.9-0.5c-1.8-0.4-3.5-1.1-5.1-2.1c-0.9-0.6-1.8-1.3-2.5-2.1c-0.7-0.9-1.4-1.8-1.8-2.9c-0.4-1.1-0.9-2.2-1.3-3.4
			c-0.2-0.6-0.2-1.3-0.4-1.9c-0.4-1.7-0.5-3.5-0.5-5.2c0-1.7,0-3.4,0.1-5.1c0.1-2.4,0.4-4.7,0.8-7c0.2-1.2,0.4-2.3,0.3-3.5
			c0-0.1,0-0.1,0-0.2c0-0.8,0-0.8,0.8-1c0.2,0,0.3-0.1,0.4-0.3c0.1-0.4,0.2-0.8,0.3-1.1c0.2-0.5,0.2-1,0.2-1.5c0-0.5,0.1-1,0.1-1.5
			c0,0,0.1,0,0.1,0c0.3,0.2,0.5,0.3,0.8,0.5c1.9,1.3,3.8,1.3,5.7,0.3c0.5-0.3,0.9-0.6,1.4-1c0.3-0.2,0.4-0.3,0.8,0
			c0.7,0.4,1.3,0.8,2.1,1c0.1,0,0.2,0.2,0.2,0.3c0.3,1.2,0.7,2.3,1.5,3.2c0.9,1,2,1.6,3.3,1.3c0.6-0.1,1.1-0.5,1.6-0.8
			c0.4-0.2,0.6-0.5,1-0.8c0.1-0.1,0.1-0.1,0.3-0.2c0.1,0.6,0.1,1.1,0.2,1.7c0.3,2.3,0.5,4.7,0.8,7c0.2,1.8,0.4,3.6,0.7,5.3
			c0.2,1.5,0.5,2.9,0.8,4.3c0.1,0.5,0.2,1,0.3,1.4c0.1,0.7,0.6,1,1.2,1.3c0.9,0.3,1.9,0.5,2.8,0.6c1.3,0.1,2.6,0.2,3.9,0.3
			c0.1,1.8,0.2,3.6,0.3,5.4c-0.6,0-1.1-0.1-1.6,0.3c-0.4,0.4-0.3,1-0.4,1.6c-0.5,0-1.1-0.1-1.6-0.1c-2.7,0-4.7,1.1-6,3.4
			c-0.4,0.8-0.7,1.6-1,2.4C31.9,92.5,31.7,92.7,31.4,92.7z M32.6,94.7c0-0.1,0-0.3,0-0.5c0.2-0.9,0.3-1.8,0.6-2.6
			c1.1-3,3.9-4.7,6.8-4.4c2.3,0.2,4.1,1.3,5.5,3c0.9,1.2,1.4,2.6,1.3,4.1c0,0.1-0.1,0.2-0.2,0.2c-0.8,0.3-1.6,0.6-2.4,0.8
			c-1.1,0.3-2.3,0.4-3.4,0.5c-1.8,0.1-3.6,0.1-5.3-0.3c-0.7-0.1-1.5-0.3-2.2-0.5c-0.2,0-0.4-0.1-0.3-0.4c-0.1,0-0.2,0.1-0.2,0.1
			C32.6,94.9,32.6,94.8,32.6,94.7z M34.7,96.8c-0.6-0.1-1.2-0.3-1.7-0.5c-0.2-0.1-0.3-0.2-0.3-0.4c6,1.5,11.8,0.7,17.4-1.7
			c0,0.3-0.2,0.6-0.5,0.7c-0.5,0.2-1.1,0.5-1.6,0.7c-1.7,0.6-3.5,1-5.3,1.3C40,97.3,37.3,97.4,34.7,96.8z M56.2,99.6
			c-3.9,0-7.8,0-11.6,0c0,0,0,0,0-0.1c0,0,0.1-0.1,0.1-0.1c0.8-0.2,1.7-0.4,2.5-0.5c1.6-0.1,3.3-0.2,4.9-0.2c3.6,0,7.2-0.1,10.9-0.1
			c1.2,0,2.3,0.2,3.5,0.3c0.5,0.1,0.9,0.2,1.4,0.3C64,99.5,60.1,99.6,56.2,99.6z M78.1,96.2c-1,0.2-2,0.5-3,0.6
			c-1.3,0.2-2.6,0.3-3.9,0.2c-2.1-0.1-4.2-0.4-6.3-0.9c-1.6-0.4-3.2-0.9-4.8-1.6c-0.5-0.2-1-0.4-1.4-0.7c0,0,0,0,0-0.1
			c0.3,0.1,0.6,0.2,0.8,0.3c1.8,0.7,3.7,1.2,5.6,1.6c1.6,0.3,3.2,0.7,4.8,0.8c2.1,0.1,4.2,0.1,6.2-0.4c0.6-0.1,1.2-0.2,1.8-0.4
			c0.3-0.1,0.5-0.2,0.8-0.3C78.6,95.8,78.5,96.2,78.1,96.2z M78.6,94.4c-0.6,0.5-1.4,0.8-2.2,1C74.6,96,72.8,96,71,96
			c-1.4,0-2.8-0.3-4.1-0.6c-0.2-0.1-0.4-0.1-0.5-0.2c-0.1,0-0.2-0.1-0.2-0.2c-0.2-2.2,0.1-4.2,2-5.5c1.1-0.8,2.2-1.3,3.6-1.3
			c1.8,0.1,3.2,0.8,4,2.4c0.1,0.1,0.1,0.2,0.2,0.4c0,0,0,0,0.1,0c-0.1-0.2-0.1-0.4-0.2-0.6c-0.7-1.4-1.9-2.1-3.4-2.3
			c-2.1-0.3-5.4,1-6.3,4.1c-0.3,1-0.3,1.9-0.3,3c-0.4-0.1-0.8-0.2-1.1-0.4c-0.1-0.1-0.1-0.3-0.1-0.5c0.1-1.1,0.4-2.1,0.9-3.1
			c0.7-1.3,1.8-2.4,3.1-3.1c2.5-1.2,4.9-1.2,7.1,0.5c1.9,1.4,2.8,3.3,2.9,5.6C78.8,94.2,78.7,94.3,78.6,94.4z M79.5,97.1
			c0-0.3,0.1-0.6,0.1-0.9c0.2,0,0.3,0,0.4,0c1.7,0,3.3,0.1,5,0.1c0.4,0,0.8,0.1,1.2,0.2c0.5,0.1,1.1,0.3,1.6,0.5
			C85.1,97.2,82.3,96.9,79.5,97.1z"/>
		<path d="M40,70.8c1.6,0.5,3.3,0.7,5,1c1.3,0.2,2.6,0.2,3.9,0.3c3.8,0.4,7.7,0.3,11.5-0.2c1-0.1,2.1-0.3,3.1-0.4
			c0.9-0.1,1.7-0.3,2.6-0.6c1-0.3,1.6-0.9,1.9-1.9c0.2-0.7,0.4-1.5,0.5-2.3c0.4-2.7,0.8-5.4,1.2-8.1c0.4-2.6,0.8-5.2,1.2-7.8
			c0.4-2.5,0.8-5.1,1.2-7.6c0.4-2.4,0.9-4.8,1.2-7.2c0.2-1.8,0.5-3.6,0.7-5.4c0.1-1.2,0.2-2.5-0.1-3.7c-0.4-1.4-1.1-2.5-2.5-3
			c-0.5-0.2-1.1-0.4-1.6-0.6c-1.7-0.4-3.3-0.8-5-1.1c-1.4-0.3-2.9-0.4-4.4-0.6c-1.8-0.1-3.6-0.2-5.3-0.3c-3.9,0-7.8,0.3-11.6,0.9
			c-1.8,0.3-3.6,0.7-5.3,1.2c-1,0.3-2,0.7-3,1.1c-1.2,0.5-2,1.5-2.3,2.8c-0.2,0.8-0.2,1.5-0.1,2.3c0.1,1.4,0.3,2.8,0.4,4.1
			c0.2,1.6,0.3,3.1,0.5,4.7c0.4,3,0.8,6,1.1,9c0.3,2.1,0.4,4.3,0.7,6.5c0.2,1.6,0.3,3.1,0.5,4.7c0.2,1.4,0.4,2.8,0.5,4.3
			c0.1,1.5,0.4,3,0.7,4.5C37.4,69.2,38.4,70.2,40,70.8z M55.7,71.5c0.7-0.6,0.8-1.4,1.1-2.2c-0.2,0.1-0.5,0.2-0.7,0.2c0,0,0,0,0,0.1
			c0.1,0,0.2,0,0.4,0c-0.2,0.8-0.6,1.5-1.3,1.9c-0.2,0.1-0.4,0.1-0.6,0.1c-0.7,0-1.5-0.1-2.3-0.1c0.3-0.5,0.8-0.9,0.8-1.6
			c-0.3,0.4-0.6,0.9-0.9,1.3c-0.1,0.1-0.3,0.2-0.4,0.2c-0.6,0-1.2,0-1.8-0.1c-0.2,0-0.4-0.1-0.5-0.1c-0.6-0.2-0.7-0.4-0.7-1
			c0-0.2,0-0.5,0-0.7c0-0.1,0-0.1,0-0.2c0,0,0,0-0.1,0c-0.4,0.5-0.4,0.5-0.9,0.2c-0.2-0.1-0.4-0.2-0.7-0.3c0.1,0.4,0.4,0.5,0.7,0.7
			c0.1,0.1,0.3,0.2,0.3,0.3c0,0.3,0,0.7,0,1c0,0.1-0.2,0.2-0.3,0.1c-1-0.1-2-0.2-3.1-0.2c-0.2,0-0.4-0.1-0.5-0.4
			c-0.1-0.4-0.3-0.7-0.5-1c-0.3-0.6-0.8-0.9-1.3-1.1c-0.2-0.1-0.4,0-0.6,0.1c-0.3,0.2-0.6,0.4-0.9,0.5c-0.1,0.1-0.1,0.2-0.2,0.3
			c0.3,0.1,0.5,0,0.7-0.2c0.3-0.2,0.5-0.5,0.9-0.2c0.3,0.2,0.6,0.3,0.7,0.6c0.3,0.4,0.4,0.8,0.7,1.3c-0.2,0-0.3,0-0.4,0
			c-1.2-0.1-2.4-0.4-3.5-0.8c-0.5-0.2-0.9-0.5-1.2-1c-0.3-0.5-0.6-0.9-0.9-1.4c-0.1-0.2-0.2-0.4-0.2-0.6c0.7,0.8,1.5,1.3,2.6,1.2
			c1.2-0.1,1.6-1,2.1-1.8c0.2,0.4,0.5,0.9,0.8,1.3c0.9,1.3,2.5,1.3,3.4,0.7c0.6-0.3,0.9-0.9,1.2-1.5c0.1-0.1,0.1-0.3,0.2-0.5
			c0.1,0.2,0.2,0.3,0.3,0.5c0.4,0.7,0.9,1.3,1.7,1.5c1.1,0.3,2.3-0.3,2.8-1.4c0.1-0.2,0.2-0.4,0.3-0.7c0.6,0.6,1.2,1.1,2.1,1
			c0.9,0,1.4-0.6,2-1.2c0.3,0.8,0.9,1.2,1.7,1.4c0.8,0.2,1.5-0.2,2.2-0.6c-0.3,0.7-0.5,1.4-0.7,2.1c-0.2,0.7-0.2,1.5,0.3,2.1
			C60.1,71.5,56.8,71.7,55.7,71.5z M71.8,38.8c-0.1,0.7-0.1,1.4-0.2,2.1c-0.6,3.2-2.2,5.6-5.2,6.9c-1.7,0.7-3.4,0.7-5.2,0.1
			c-1.6-0.6-2.9-1.7-3.9-3.1c-0.4-0.5-0.8-1.1-1.1-1.7C56,43,56,42.9,56,42.7c0,0,0.1,0,0.1,0c0.1,0.1,0.1,0.3,0.2,0.4
			c0.4,1,1.1,1.7,2,2.3c0.5,0.3,1,0.7,1.5,0.9c1,0.5,2.1,0.5,3.1,0.2c0.1,0,0.1,0,0.2-0.1c0.1,0,0.1,0,0.2,0c0,0.3,0.2,0.3,0.4,0.3
			c1,0,1.9-0.4,2.9-0.7c0.5-0.2,0.9-0.4,1.4-0.6c0.9-0.4,1.3-1.2,1.8-2c0.7-1.2,0.8-2.5,0.9-3.8c0.1-1.6-0.1-3.2-0.8-4.7
			c-0.8-1.8-2.1-3.2-3.9-4c-0.1-0.1-0.3-0.1-0.4-0.1c-0.1,0-0.3,0-0.4-0.1c0,0,0,0,0-0.1c0.3,0.1,0.6,0.1,0.9,0.2
			c1.6,0.4,3,1.1,4.1,2.4c0.9,1.1,1.5,2.3,1.6,3.7C71.9,37.4,71.8,38.1,71.8,38.8z M61.9,39.1c1,0,2.1,0.1,3.1,0.5
			c1.5,0.5,1.9,1.5,1.8,2.9c-0.1,1.1-0.8,1.9-1.7,2.5c-0.8,0.5-1.6,0.8-2.4,1c-1.3,0.4-2.5,0-3.4-1c-0.7-0.7-1.3-1.5-1.7-2.4
			c-0.1-0.2-0.1-0.4-0.2-0.5c-0.3-1,0.2-1.7,1-2.1C59.8,39.2,60.8,39.1,61.9,39.1z M59.3,35.9c0-0.9,0.5-1.5,1.3-1.5
			c0.7,0,1.4,0.7,1.4,1.5c0,0.9-0.6,1.5-1.4,1.5C59.9,37.3,59.3,36.7,59.3,35.9z M66.8,43.5c1.1-1.8,1.8-3.7,1.5-5.9
			c-0.3-2.1-0.8-4-2.3-5.6c0.4,0.1,1.8,1.5,2.4,2.4c0.7,1,1,2,1.1,3.2C69.7,39.9,68.5,42.7,66.8,43.5z M70,39.5
			C70,39.5,70,39.5,70,39.5c0.1,0.1,0.1,0.1,0.1,0.2c-0.2,0.9-0.2,1.8-0.6,2.7c-0.4,1.2-1.1,2.1-2.2,2.7c-0.8,0.5-1.7,0.8-2.6,1.1
			c-0.1,0-0.2,0-0.2,0c1.3-0.8,2.8-1.3,3.8-2.6C69.2,42.5,69.7,41.1,70,39.5z M58.9,32.8c-0.5,1.4-1.1,2.9-1.5,4.3
			c-0.4,1.2-0.6,2.4-0.6,3.6c0,1.2,0.3,2.2,1,3.2c0.2,0.3,0.4,0.6,0.6,0.8c-0.6-0.2-0.9-0.7-1.2-1.1c-0.9-1.5-1.4-3.2-1.1-5
			c0.3-2.1,1.1-4,2.5-5.7c0.1-0.2,0.3-0.3,0.5-0.5C59,32.6,59,32.7,58.9,32.8z M56.1,42.6c0,0-0.1,0-0.1,0c-0.1-0.5-0.2-1-0.4-1.5
			c0,0,0.1,0,0.1,0C55.8,41.6,55.9,42.1,56.1,42.6z M72.5,36.4c0,0-0.1,0-0.1,0c0-0.3,0.1-0.6,0.1-0.9c0,0,0.1,0,0.1,0
			C72.5,35.8,72.5,36.1,72.5,36.4z M34.5,36.6c0,0,0,0-0.1,0.1c0-0.3,0-0.5-0.1-0.7c-0.1-1.3-0.2-2.6-0.3-3.9
			c-0.1-1.3-0.2-2.6,0-3.8c0.2-1.2,0.9-2,1.9-2.6c1.2-0.6,2.4-0.9,3.7-1.3c2.5-0.7,5.1-1,7.7-1.2c2.1-0.1,4.1-0.3,6.2-0.3
			c3-0.1,6,0.1,9,0.3c1.6,0.1,3.1,0.4,4.7,0.9c1.2,0.4,2.4,0.7,3.5,1.3c1,0.5,1.5,1.3,1.7,2.3c0.3,1.8,0.2,3.6-0.1,5.3
			c-0.1,0.6-0.2,1.1-0.3,1.8c-0.1-0.3-0.2-0.5-0.3-0.8c-0.8-1.9-2-3.4-3.9-4.2c-1.4-0.6-2.9-0.7-4.4-0.3c-1.1,0.3-2.1,0.7-3.1,1.3
			c-1.3,0.7-2.1,1.8-3,3c-1.5,2.1-2,4.4-2.1,6.9c-0.1,1.4,0.4,2.7,1.1,3.9c1,1.6,2.4,2.7,3.9,3.6c0.7,0.4,1.5,0.6,2.3,0.6
			c0.5,0,0.9,0.1,1.4,0c0.5,0,0.9-0.1,1.4-0.1c0,0,0,0,0,0.1c-0.5,0.3-1,0.6-1.5,0.8c-1.5,0.7-3,1.2-4.5,1.6c-2.8,0.7-5.6,1-8.5,0.9
			c-2.2-0.1-4.4-0.4-6.4-1.2c-1.2-0.4-2.3-1-3.3-1.7c0,0-0.1-0.1-0.1-0.1c0,0,0,0,0-0.1c0.1,0,0.2,0,0.3,0c1.8,0.1,3.6-0.2,5.1-1.2
			c1.7-1.1,3.1-2.6,4-4.4c1-2,1.2-4.1,0.7-6.3c-0.6-2.5-1.9-4.6-4.1-6c-2-1.4-4.2-1.8-6.7-1.2c-1.7,0.4-3,1.3-4,2.7
			c-0.3,0.5-0.7,1-1,1.5c-0.5,0.8-0.6,1.6-0.7,2.5C34.5,36.4,34.5,36.5,34.5,36.6z M63.4,51.2c-1.2,1.9-2.7,3.6-4.8,4.6
			c-1.5,0.7-3,1.2-4.6,1.4c-0.8,0.1-1.5,0.1-2.3,0.1c-1.5,0-2.9-0.6-4.1-1.5c-1-0.8-2-1.6-2.9-2.6c-0.3-0.3-0.6-0.7-0.9-1.1
			C50.6,55,57.1,54.3,63.4,51.2z M42.6,30.6c-0.3,0-0.6,0.1-1,0.1c0,0,0,0,0-0.1C41.9,30.7,42.3,30.6,42.6,30.6
			C42.6,30.6,42.6,30.6,42.6,30.6z M35,35.5c0.4-1.3,1.2-2.4,2.3-3.2c0.9-0.7,1.9-1.1,2.9-1.6c-0.2,0.2-0.5,0.4-0.7,0.6
			c-0.2,0.2-0.4,0.4-0.6,0.7c0,0,0,0.1,0.1,0.1c0.1,0,0.2-0.1,0.3-0.1c0.9-0.6,1.9-0.9,3-0.9c0.4,0,0.8-0.1,1.2-0.2
			c-0.7,0.3-1.4,0.6-2.1,1c-1.9,1-3.1,2.6-3.6,4.7c-0.2,0.9-0.5,1.7-0.6,2.6c-0.2,1.7,0.1,3.3,0.9,4.8c0.2,0.4,0.6,0.7,0.9,1.1
			c0.1,0.1,0.2,0.2,0.3,0.3c-1.3-0.7-2-1.9-2.3-3.4c-0.2-0.9-0.3-1.8-0.2-2.7c0-0.2,0-0.4,0-0.6c0,0,0,0-0.1,0
			c-0.1,0.2-0.2,0.5-0.2,0.7c-0.3,2.3,0.3,4.2,2,5.8c0.6,0.6,1.3,1,2.1,1.2c0.2,0,0.3-0.1,0.5-0.1c0.1,0,0.2,0,0.3,0
			c1.2,0.7,2.4,0.9,3.7,0.3c1.1-0.5,1.8-1.4,2.1-2.5c0.2-0.7,0.3-1.3,0.4-2c0,0-0.1,0-0.1,0c-0.1,0.3-0.2,0.7-0.4,1
			c-0.3,0.7-0.6,1.4-1.1,1.9c-1.3,1.3-2.9,1.9-4.7,1c-0.8-0.4-1.5-1-1.9-1.9c-0.3-0.8-0.2-1.7,0.5-2.4c0.5-0.6,1.2-0.9,2-1.1
			c1-0.3,2.1-0.4,3.1-0.3c0.6,0.1,1.2,0.2,1.8,0.3c0-0.3-0.1-0.6-0.1-0.9c-0.1-0.5-0.3-1.1-0.4-1.6c-0.1-0.3-0.2-0.5-0.3-0.7
			c-0.1-0.1-0.1-0.3-0.1-0.4c0-0.3-0.2-0.4-0.5-0.3c-0.3,0.1-0.5,0.2-0.7,0.3c-0.2,0.1-0.3,0-0.5-0.2c-0.2-0.3-0.2-0.7-0.2-1.1
			c0.1-1,0.4-1.9,1-2.7c0.1-0.1,0.1-0.2,0.2-0.3c0.2-0.3,0.5-0.3,0.9-0.2c1.3,0.5,2.2,1.3,2.9,2.5c1.1,1.8,1.5,3.8,1.3,5.9
			c-0.2,2.2-1.3,3.9-2.8,5.4c-0.8,0.8-1.7,1.5-2.8,2c-1.6,0.8-3.2,0.8-4.8,0.2c-0.7-0.3-1.4-0.8-2-1.3c-0.4-0.3-0.8-0.7-1.2-1.2
			c-0.5-0.6-0.7-1.4-1-2.1c-0.4-1.1-0.8-2.2-1-3.4C34.4,38.5,34.5,37,35,35.5z M35,42.7c0.1,0.4,0.2,0.7,0.3,1.1
			c0.1,0.4,0.2,0.7,0.3,1.1c-0.3-0.2-0.6-0.5-0.8-3.2C35,41.9,34.9,42.4,35,42.7z M35.9,47.5c-0.1,0.5-0.2,1-0.4,1.5
			c-0.1-1.3-0.3-2.6-0.4-3.9c0.5,0.1,0.8,0.9,0.6,1.3c-0.1,0.2-0.2,0.4,0.1,0.6C35.9,47.1,36,47.3,35.9,47.5z M36.7,60.6
			c-0.6-3.9-1-7.9-0.5-11.8c0,1,0.1,2.1,0,3.1c-0.2,2-0.1,4.1,0.2,6.1c0.1,0.7,0.2,1.4,0.3,2.1C36.7,60.2,36.7,60.4,36.7,60.6z
			 M41.5,59.2c0,0,0-0.1,0-0.1c-0.1-0.1-0.1-0.2-0.2-0.3C41.2,58.9,41,59,41,59.2c-0.1,0.7-0.1,1.3-0.2,2c-0.1,0.5-0.3,0.8-0.7,1.1
			c0,0-0.1,0.1-0.2,0.1c-0.7,0.5-1.3,0.5-1.9-0.2c-0.2-0.2-0.3-0.5-0.5-0.7c-0.1-0.1-0.2-0.2-0.3-0.2C37.1,61.2,37,61,37,60.8
			c-0.3-1.7-0.4-3.3-0.5-5c0-1.8-0.1-3.5-0.1-5.3c0-1,0.1-1.9,0.1-2.9c0.2,0.2,0.5,0.4,0.8,0.7c0.4,0.3,0.8,0.7,1.2,1
			c0.2,0.1,0.2,0.3,0.2,0.5c-0.1,1.3-0.1,2.6-0.1,3.9c-0.1,1.7,0,3.3,0.1,5c0,0.1,0,0.2,0.1,0.3c0,0,0.1,0,0.1,0c0-3,0-6.1,0.3-9.2
			c1.9,1.9,3.8,3.7,5.6,5.5c1.6,1.6,3.5,2.7,5.7,3.1c1.9,0.3,3.7,0.3,5.5-0.2c1.9-0.5,3.5-1.4,5.1-2.6c1.4-1.1,2.9-2.2,4.1-3.5
			c0.8-0.9,1.7-1.8,2.5-2.6c0.7-0.8,1.5-1.6,2.2-2.3c0,0,0,0,0,0c0,1.7,0,3.4-0.1,5.1c-0.1,1.2-0.3,2.3-0.4,3.5
			c-0.4,2.7-0.8,5.3-1.2,8c-0.2,1.5-0.5,3-0.9,4.5c-0.3,1.1-1,1.9-2.1,2.3c-0.4,0.2-0.9,0.3-1.3,0.4c0,0,0,0,0-0.1
			c0.3-0.5,0.7-1,1-1.5c0.3-0.5,0.5-1.1,0.6-1.7c0,0-0.1,0-0.1,0c-0.2,0.3-0.3,0.6-0.5,0.9c-0.4,0.6-0.7,1.2-1.1,1.7
			c-0.4,0.5-0.9,0.8-1.5,0.9c-0.3,0.1-0.7,0-1-0.1c-0.4-0.1-0.7-0.4-0.7-0.9c-0.1-0.5,0.1-1,0.2-1.5c0.3-1,0.7-1.8,1.3-2.6
			c0.7-0.9,1.1-1.9,1.4-3c0.1-0.2,0.1-0.5,0.2-0.7c0.1-0.2,0.2-0.3,0.4-0.5c0.2-0.2,0.4-0.3,0.6-0.4c1.2-0.9,1.8-2.1,2.2-3.5
			c0.2-0.8,0.3-1.6,0.5-2.4c0,0-0.1,0-0.1,0c-0.1,0.3-0.2,0.7-0.3,1c-0.5,1.6-1,3.2-2.4,4.3c-0.2,0.2-0.4,0.3-0.6,0.4
			c-0.1,0.1-0.2,0.2-0.3,0.4c-0.4,0.9-0.8,1.8-1.2,2.7c-0.3,0.6-0.7,1.2-1.2,1.8c-0.7,0.8-1.6,1.2-2.7,1c-0.6-0.1-1.1-0.6-1.3-1.2
			c-0.1-0.2,0-0.4,0-0.6c0.2-0.9,0.4-1.8,0.6-2.7c-0.4-0.1-0.5-0.1-0.6,0.3c-0.3,0.8-0.5,1.7-0.7,2.5c-0.2,0.8-0.7,1.3-1.5,1.5
			c-0.9,0.2-1.8-0.4-1.8-1.3c0-1,0.1-2,0.1-2.9c0-0.1,0-0.1,0-0.2c-0.3,0.1-0.4,0.3-0.5,0.6c-0.1,0.4-0.1,0.9-0.2,1.4
			c-0.1,0.6-0.2,1.3-0.3,1.9c-0.2,1-1.5,2-2.5,1.8c-0.7-0.1-1.3-0.6-1.5-1.3c-0.2-0.6-0.2-1.3-0.3-2c-0.1-0.4-0.1-0.8-0.1-1.2
			c0-0.1-0.1-0.2-0.1-0.3c0,0-0.1,0-0.1,0c-0.1,0.2-0.2,0.4-0.2,0.6c-0.1,0.6-0.1,1.2-0.2,1.8c-0.1,0.4-0.2,0.9-0.3,1.3
			c-0.4,0.9-1.4,1.6-2.3,1.4c-0.7-0.1-1.2-0.6-1.6-1.2c-0.5-0.8-0.5-1.7-0.4-2.6c0.1-1,0.2-2,0.3-3c0-0.3,0-0.5-0.1-0.8
			c0,0-0.1,0-0.1,0c0,0.3-0.1,0.5-0.1,0.8c-0.3,1.4-0.5,2.8-0.8,4.2c-0.2,0.9-0.6,1.6-1.4,2c-0.6,0.3-1.1,0.3-1.6-0.1
			c-0.8-0.5-1.1-1.2-1-2.1c0-0.5,0-1.1,0-1.7c-0.2,0.3-0.4,0.6-0.4,0.9c0,0.7,0,1.4,0.1,2.1c0,0,0,0-0.1,0.1
			C37,64.9,37,63,36.8,61.1c0.1,0.2,0.1,0.5,0.2,0.7c0.2,0.7,0.6,1.2,1.1,1.5c0.5,0.3,1.1,0.3,1.6,0.1c0.6-0.2,1.1-0.6,1.3-1.3
			C41.5,61.2,41.5,60.2,41.5,59.2z"/>
		<path d="M37.5,27.5c0.3-0.2,0.7-0.5,1-0.7c1.6-0.8,3.3-0.6,4.9-0.1c1.5,0.5,2.8,1.4,3.9,2.5c1,1,1.8,2,2.7,3.1
			c0.1,0.2,0.3,0.3,0.4,0.5c0,0,0,0,0.1,0c-0.1-0.4-0.3-0.9-0.4-1.3c-0.6-1.9-1.6-3.6-3-4.9c-2.1-2-4.6-2.5-7.2-1.4
			c-1,0.4-1.7,1.1-2.3,1.9c-0.2,0.2-0.3,0.5-0.4,0.7c0,0,0,0,0.1,0.1C37.3,27.7,37.4,27.6,37.5,27.5z"/>
		<path d="M56.7,32.4c0.4-0.5,0.8-1,1.2-1.5c1.1-1.5,2.4-2.8,3.9-3.8c2-1.4,4.1-1.5,6.3-0.4c0.3,0.1,0.5,0.3,0.8,0.4
			c0-0.1,0-0.1,0-0.1c-0.5-1.1-1.2-2-2.4-2.5c-1.7-0.7-3.4-0.4-5,0.5c-1.3,0.7-2.3,1.8-3.1,3c-1,1.4-1.6,2.9-1.9,4.7
			C56.6,32.5,56.6,32.5,56.7,32.4z"/>
		<path d="M63.3,59.4c-0.2,0.4-0.5,0.7-0.8,1.1c0.2,0.1,0.4,0.1,0.6,0c0.2-0.2,0.4-0.4,0.5-0.6c0.3-0.5,0.6-1,1-1.5
			c0.7-1,0.9-2.2,0.8-3.4c0-0.1-0.1-0.2-0.1-0.2c0,0-0.1,0-0.1,0c-0.1,0.6,0,1.2-0.2,1.8c-0.2-0.4-0.4-0.6-0.5-0.9
			c0,0-0.1,0-0.1-0.1c-0.3-0.2-0.5-0.3-0.8-0.5c-0.3-0.2-0.5-0.2-0.8,0c0,0.1,0.1,0.1,0.2,0.2c0.3,0.2,0.7,0.4,1,0.7
			c0.7,0.6,0.9,1.2,0.5,1.8C64,58.3,63.7,58.8,63.3,59.4z"/>
		<path d="M39.2,61.7c0.2,0.1,0.3,0.1,0.4,0.1c0.2-0.4,0.4-0.9,0.6-1.3c0,0-0.1,0-0.1-0.1C39.7,60.9,39.4,61.3,39.2,61.7z"/>
		<path d="M36.5,37.8c0.3-0.9,0.5-1.8,0.8-2.7c0,0,0,0,0,0c-0.2,0.3-0.4,0.6-0.6,0.9c-0.3,0.6-0.6,1.1-0.7,1.8c0,0.2,0,0.4,0.1,0.5
			C36.3,38.2,36.5,38,36.5,37.8z"/>
	</g>
	<path d="M53.1,68.5c0,1-0.6,1.6-1.5,2c0-0.1,0-0.3,0-0.4c0.4-0.5,0.9-1.1,1.4-1.6C53,68.5,53.1,68.5,53.1,68.5z"/>
</g>
</svg>
